<?xml version="1.0" encoding="utf-8"?>
<!-- Generator: Adobe Illustrator 15.0.2, SVG Export Plug-In  -->
<!DOCTYPE svg PUBLIC "-//W3C//DTD SVG 1.1//EN" "http://www.w3.org/Graphics/SVG/1.1/DTD/svg11.dtd" [
	<!ENTITY ns_flows "http://ns.adobe.com/Flows/1.0/">
<svg version="1.1"
	 xmlns="http://www.w3.org/2000/svg" xmlns:xlink="http://www.w3.org/1999/xlink" xmlns:a="http://ns.adobe.com/AdobeSVGViewerExtensions/3.0/"
	 x="0px" y="0px" width="400px" height="400px" viewBox="-6 -30.438 400 400"
	 overflow="visible" enable-background="new -6 -30.438 400 400" xml:space="preserve">
<defs>
</defs>
<path fill-rule="evenodd" clip-rule="evenodd" d="M0,149.732c0-6.51,0-13.02,0-19.53c4.778-42.365,34.01-76.701,63.24-95.79
	C94.482,14.011,137.81-0.229,186.93,0.003c56.169,0.264,106.953,18.683,142.29,50.22c33.973,30.319,57.544,85.266,31.62,138.569
	c-30.781,63.291-112.908,98.936-209.25,88.351c-31.83,20.462-62.815,41.135-95.79,62.31c-6.712,4.311-24.03,20.603-34.41,16.74
	c-15.049-5.6-1.089-24.3,4.65-33.479c15.736-25.17,32.633-50.889,45.57-72.54C36.033,228.398,7.408,199.675,0,149.732z
	 M105.09,279.933c10.363-6.654,29.981-24.246,41.85-26.04c13.321-2.014,26.97,2.64,38.13,2.79c40.649,0.548,71.384-9.41,98.58-24.18
	c33.326-18.099,69.162-46.778,65.1-99.511c-3.127-40.589-32.234-66.34-58.59-81.84c-13.763-8.094-29.594-16.593-49.29-21.39
	C179.237,14.751,115.698,27.295,74.4,54.872c-25.792,17.225-48.875,42.92-51.15,79.98c-2.797,45.557,26.557,73.308,52.08,90.21
	c7.647,5.064,23.281,10.054,24.18,19.53c0.99,10.436-11.829,23.687-16.74,31.62c-7.062,11.407-12.368,20.136-18.6,29.76
	C79.015,297.171,90.188,289.502,105.09,279.933z"/>
</svg>
