<?xml version="1.0" encoding="utf-8"?>
<!-- Generator: Adobe Illustrator 15.0.2, SVG Export Plug-In  -->
<!DOCTYPE svg PUBLIC "-//W3C//DTD SVG 1.1//EN" "http://www.w3.org/Graphics/SVG/1.1/DTD/svg11.dtd" [
	<!ENTITY ns_flows "http://ns.adobe.com/Flows/1.0/">
<svg version="1.1"
	 xmlns="http://www.w3.org/2000/svg" xmlns:xlink="http://www.w3.org/1999/xlink" xmlns:a="http://ns.adobe.com/AdobeSVGViewerExtensions/3.0/"
	 x="0px" y="0px" width="400px" height="400px" viewBox="-5.778 -1.636 400 400"
	 overflow="visible" enable-background="new -5.778 -1.636 400 400" xml:space="preserve">
<defs>
</defs>
<path fill-rule="evenodd" clip-rule="evenodd" d="M162.941,83.364c9.11,9.372,1.419,35.541,3.961,51.48
	c9.951,12.487,36.27,5.676,55.44,11.88c58.023,18.777,95.116,68.563,110.879,134.64c-31.308-45.253-82.654-70.469-166.319-63.36
	c0,18.479,0,36.959,0,55.439c0.671,16.699-6.086-0.068-11.881,0c-1.165-8.075-10.715-7.766-11.879-15.84
	c-32.967-25.771-56.529-49.333-87.12-75.241C88.903,146.606,129.654,118.715,162.941,83.364z"/>
<path fill-rule="evenodd" clip-rule="evenodd" d="M178.013,0.749c95.141-7.811,160.362,46.695,190,106
	c18.07,36.159,26.227,80.299,18,124c-14.244,75.669-71.442,134.013-143,152c-39.928,10.036-85.485,6.57-125-10
	c-60.966-25.566-117.025-85.273-118-177c-0.921-86.641,47.161-143.815,105-174C126.014,10.789,148.519,3.171,178.013,0.749z
	 M104.013,65.749c-41.591,29.033-71.78,74.252-66,145c5.334,65.286,52.863,112.514,103,131c133.016,49.044,259.707-93.557,193-221
	c-24.536-46.877-76.938-88.792-151-83C149.665,40.356,124.68,51.321,104.013,65.749z"/>
</svg>
