<?xml version="1.0" encoding="utf-8"?>
<!-- Generator: Adobe Illustrator 15.0.0, SVG Export Plug-In  -->
<!DOCTYPE svg PUBLIC "-//W3C//DTD SVG 1.1//EN" "http://www.w3.org/Graphics/SVG/1.1/DTD/svg11.dtd" [
	<!ENTITY ns_flows "http://ns.adobe.com/Flows/1.0/">
<svg version="1.1"
	 xmlns="http://www.w3.org/2000/svg" xmlns:xlink="http://www.w3.org/1999/xlink" xmlns:a="http://ns.adobe.com/AdobeSVGViewerExtensions/3.0/"
	 x="0px" y="0px" width="400px" height="400px" viewBox="0 -2.939 400 400"
	 overflow="visible" enable-background="new 0 -2.939 400 400" xml:space="preserve">
<defs>
</defs>
<path fill-rule="evenodd" clip-rule="evenodd" d="M182.489,0c0.396,0,0.795,0,1.192,0c1.59,0,3.179,0,4.769,0
	c0.795,0,1.59,0,2.385,0c1.59,0,3.18,0,4.77,0c0.796,0,1.591,0,2.386,0c0.396,0,0.795,0,1.191,0c1.59,0,3.181,0,4.771,0
	c0.795,0,1.59,0,2.385,0c0.396,0,0.794,0,1.191,0c0.795,0,1.59,0,2.385,0c0.397,0,0.795,0,1.193,0c0.794,0,1.589,0,2.384,0
	c0.397,0,0.795,0,1.192,0c0.159,0.238-0.198,0.994,0,1.191c0.146,0.146,0.981-0.052,1.192,0c0.339,0.086,0.843,0,1.193,0
	c0.393,0,0.8-0.027,1.191,0c0.392,0.029,0.8,0,1.192,0c0.397,0,0.796,0,1.192,0c0.397,0,0.796,0,1.192,0
	c0.386,0,0.811-0.045,1.193,0c0.381,0.047,0.806,0,1.191,0c0.291,0,0.929-0.112,1.191,0c0.151,0.065-0.124,1.067,0,1.193
	c0.135,0.133,0.994-0.035,1.193,0c0.366,0.064,0.82,0,1.193,0c0.396,0,0.794,0,1.191,0c0.378,0,0.818-0.057,1.192,0
	c0.373,0.057,0.814,0,1.192,0c0.35,0,0.854-0.084,1.192,0c0.212,0.053,1.046-0.146,1.192,0c0.085,0.085-0.094,1.174,0,1.192
	c0.357,0.071,0.827,0,1.192,0c0.397,0,0.795,0,1.192,0s0.796,0,1.192,0c0.358,0,0.844-0.077,1.192,0
	c0.207,0.046,1.052-0.142,1.192,0c0.126,0.126-0.15,1.128,0,1.192c0.263,0.112,0.902,0,1.192,0c0.34,0,0.867-0.092,1.193,0
	c0.324,0.092,0.852,0,1.191,0c0.141,0,1.115-0.095,1.193,0c0.078,0.096-0.097,1.168,0,1.192c0.34,0.083,0.839,0,1.191,0
	c0.398,0,0.795,0,1.191,0c0.398,0,0.796,0,1.193,0c0.366,0,0.834-0.071,1.192,0c0.094,0.019-0.085,1.108,0,1.192
	c0.146,0.146,0.98-0.053,1.192,0c0.339,0.085,0.842,0,1.192,0c0.341,0,0.865-0.092,1.192,0c0.216,0.061,1.042-0.15,1.192,0
	c0.125,0.125-0.149,1.128,0,1.192c0.263,0.112,0.902,0,1.192,0c0.3,0,0.917-0.11,1.192,0c0.233,0.093,1.022-0.17,1.192,0
	c0.167,0.167-0.191,1.065,0,1.192c0.251,0.168,0.898-0.09,1.192,0c0.314,0.098,0.861,0,1.192,0c0.289,0,0.929-0.113,1.192,0
	c0.149,0.064-0.126,1.066,0,1.192c0.164,0.164,0.964-0.083,1.192,0c0.291,0.105,0.881,0,1.191,0c0.291,0,0.931-0.113,1.193,0
	c0.149,0.063-0.126,1.067,0,1.192c0.161,0.16,0.966-0.077,1.191,0c0.302,0.103,0.873,0,1.193,0c0.29,0,0.93-0.113,1.192,0
	c0.15,0.064-0.126,1.066,0,1.192c0.167,0.166,0.962-0.088,1.191,0c0.286,0.107,0.886,0,1.193,0c0.142,0,1.114-0.095,1.192,0
	c0.194,0.238-0.156,0.922,0,1.192c0.397,0,0.795,0,1.192,0c0.142,0,1.115-0.094,1.192,0c0.114,0.14-0.148,1.121,0,1.192
	c0.245,0.116,0.917,0,1.192,0c0.142,0,1.114-0.095,1.192,0c0.194,0.237-0.156,0.922,0,1.192c0.795,0,1.59,0,2.385,0
	c0.343,0,0.863-0.09,1.191,0c0.112,0.031-0.096,1.096,0,1.191c0.113,0.113,1.02-0.008,1.193,0c0.296,0.017,0.927-0.122,1.193,0
	c0.156,0.073-0.134,1.062,0,1.193c0.111,0.113,1.018-0.01,1.191,0c0.27,0.015,0.96-0.127,1.191,0c0.175,0.095-0.146,1.045,0,1.191
	c0.182,0.182,0.954-0.114,1.193,0c0.238,0.116,1.011-0.181,1.192,0c0.167,0.168-0.191,1.065,0,1.193
	c0.277,0.185,0.898-0.163,1.192,0c0.241,0.134,1.002-0.189,1.192,0c0.167,0.167-0.19,1.065,0,1.192c0.276,0.185,0.895-0.156,1.191,0
	c0.241,0.125,1.007-0.187,1.193,0c0.167,0.167-0.19,1.064,0,1.192c0.276,0.185,0.911-0.18,1.192,0c0.24,0.152,0.995-0.197,1.192,0
	c0.198,0.198-0.159,0.954,0,1.192c0.238,0.158,0.994-0.199,1.192,0c0.198,0.198-0.159,0.953,0,1.192c0.795,0,1.59,0,2.385,0
	c0.158,0.238-0.199,0.993,0,1.192s0.953-0.159,1.192,0c0.238,0.158,0.993-0.199,1.192,0c0.148,0.148-0.176,1.095,0,1.191
	c0.215,0.12,0.941,0,1.191,0c0.142,0,1.116-0.094,1.193,0c0.195,0.238-0.156,0.923,0,1.193c0.238,0.159,0.993-0.199,1.191,0
	c0.126,0.125-0.149,1.128,0,1.192c0.264,0.113,0.902,0,1.193,0c0.203,0,1.037-0.117,1.191,0c0.198,0.148-0.178,1.014,0,1.192
	c0.168,0.167,1.065-0.19,1.192,0c0.184,0.274-0.146,0.893,0,1.192c0.398,0,0.796,0,1.193,0c0.29,0,0.929-0.113,1.191,0
	c0.149,0.063-0.124,1.066,0,1.191c0.196,0.196,0.952-0.148,1.193,0c0.186,0.115-0.161,1.033,0,1.193
	c0.198,0.199,0.954-0.159,1.192,0c0.238,0.158,0.993-0.199,1.191,0c0.199,0.199-0.159,0.953,0,1.191c0.239,0.16,0.994-0.197,1.193,0
	c0.198,0.199-0.199,0.994,0,1.193c0.198,0.198,0.993-0.199,1.192,0c0.198,0.199-0.159,0.953,0,1.191c0.397,0,0.794,0,1.192,0
	c0.289,0,0.929-0.112,1.191,0c0.15,0.064-0.125,1.067,0,1.193c0.202,0.201,0.984-0.195,1.193,0c0.201,0.187-0.195,0.997,0,1.191
	c0.166,0.168,1.064-0.19,1.191,0c0.184,0.275-0.146,0.894,0,1.193c0.397,0,0.795,0,1.193,0c0.141,0,1.114-0.095,1.191,0
	c0.195,0.237-0.155,0.922,0,1.192c0.238,0.158,0.994-0.199,1.192,0c0.199,0.198-0.198,0.993,0,1.191
	c0.199,0.199,0.994-0.198,1.192,0c0.199,0.199-0.198,0.994,0,1.193c0.199,0.198,0.993-0.199,1.193,0
	c0.198,0.198-0.199,0.993,0,1.191c0.198,0.199,0.993-0.197,1.192,0c0.198,0.199-0.159,0.954,0,1.193c0.396,0,0.795,0,1.191,0
	c0.142,0,1.116-0.095,1.193,0c0.194,0.238-0.156,0.922,0,1.192c0.238,0.158,0.993-0.198,1.191,0c0.199,0.198-0.198,0.993,0,1.192
	c0.199,0.198,0.994-0.199,1.193,0c0.192,0.192-0.202,1.01,0,1.192c0.212,0.192,0.989-0.202,1.192,0c0.166,0.167-0.191,1.064,0,1.192
	c0.237,0.159,0.993-0.199,1.191,0c0.199,0.198-0.198,0.993,0,1.192c0.199,0.197,0.994-0.199,1.193,0
	c0.198,0.199-0.199,0.994,0,1.191c0.192,0.194,1.009-0.201,1.191,0c0.193,0.213-0.201,0.991,0,1.193
	c0.167,0.167,1.065-0.191,1.193,0c0.158,0.238-0.199,0.993,0,1.191c0.197,0.199,0.994-0.198,1.191,0
	c0.199,0.199-0.197,0.994,0,1.193c0.199,0.198,0.994-0.199,1.192,0c0.193,0.192-0.201,1.008,0,1.191
	c0.212,0.193,0.991-0.201,1.192,0c0.168,0.168-0.19,1.065,0,1.192c0.238,0.16,0.994-0.198,1.193,0c0.198,0.199-0.199,0.994,0,1.193
	c0.198,0.198,0.993-0.199,1.191,0c0.198,0.198-0.198,0.993,0,1.191c0.194,0.194,1.01-0.201,1.192,0c0.194,0.213-0.202,0.991,0,1.193
	c0.167,0.167,1.066-0.191,1.192,0c0.184,0.275-0.146,0.893,0,1.191c0.238,0.159,0.994-0.198,1.192,0
	c0.113,0.113-0.009,1.019,0,1.193c0.021,0.396-0.017,0.795,0,1.191c0.238,0.159,0.994-0.198,1.193,0
	c0.198,0.199-0.199,0.994,0,1.193c0.198,0.198,0.993-0.199,1.191,0c0.199,0.198-0.198,0.993,0,1.192
	c0.199,0.198,0.994-0.199,1.192,0c0.199,0.198-0.198,0.993,0,1.191c0.199,0.199,0.994-0.198,1.193,0
	c0.198,0.199-0.159,0.955,0,1.193c0.237,0.158,0.993-0.199,1.191,0c0.113,0.112-0.01,1.018,0,1.191c0.021,0.397-0.017,0.796,0,1.193
	c0.238,0.158,0.994-0.199,1.193,0c0.197,0.197-0.199,0.992,0,1.191c0.197,0.199,0.993-0.199,1.191,0
	c0.199,0.199-0.158,0.954,0,1.192c0.127,0.19,1.025-0.166,1.191,0c0.114,0.113-0.008,1.019,0,1.192c0.022,0.396-0.016,0.797,0,1.192
	c0.24,0.16,0.994-0.198,1.193,0c0.199,0.199-0.199,0.994,0,1.192s0.994-0.198,1.193,0c0.197,0.199-0.16,0.954,0,1.192
	c0.236,0.159,0.992-0.198,1.191,0c0.198,0.199-0.158,0.955,0,1.193c0.159,0.238-0.199,0.993,0,1.191c0.16,0.16,1.078-0.185,1.192,0
	c0.149,0.24-0.196,0.997,0,1.193c0.126,0.124,1.128-0.15,1.192,0c0.113,0.263,0,0.902,0,1.191c0,0.398,0,0.795,0,1.192
	c0.238,0.16,0.993-0.198,1.192,0c0.199,0.199-0.199,0.994,0,1.193c0.199,0.198,0.994-0.199,1.192,0c0.195,0.194-0.148,0.951,0,1.191
	c0.148,0.241-0.195,0.997,0,1.193c0.168,0.167,1.065-0.191,1.192,0c0.184,0.275-0.146,0.893,0,1.191
	c0.238,0.159,0.994-0.198,1.192,0c0.113,0.113-0.009,1.019,0,1.193c0.014,0.269-0.126,0.96,0,1.191c0.096,0.175,1.045-0.147,1.192,0
	c0.179,0.179-0.11,0.955,0,1.193c0.11,0.237-0.179,1.013,0,1.191c0.125,0.126,1.128-0.149,1.193,0c0.112,0.264,0,0.902,0,1.192
	c0,0.397,0,0.795,0,1.192c0.237,0.159,0.993-0.198,1.191,0c0.198,0.199-0.158,0.954,0,1.192c0.238,0.159,0.994-0.199,1.192,0
	c0.113,0.113-0.01,1.019,0,1.193c0.016,0.291-0.124,0.931,0,1.191c0.076,0.16,1.059-0.134,1.193,0c0.111,0.113-0.01,1.019,0,1.192
	c0.014,0.278-0.127,0.95,0,1.192c0.087,0.168,1.049-0.142,1.191,0c0.113,0.113-0.01,1.018,0,1.192c0.015,0.27-0.127,0.961,0,1.192
	c0.095,0.174,1.045-0.147,1.193,0c0.182,0.182-0.116,0.953,0,1.192c0.114,0.239-0.182,1.012,0,1.193
	c0.167,0.166,1.063-0.191,1.191,0c0.186,0.277-0.163,0.897,0,1.191c0.135,0.241-0.189,1.002,0,1.193
	c0.167,0.166,1.065-0.191,1.192,0c0.179,0.267-0.124,0.891,0,1.191c0.097,0.234-0.171,1.021,0,1.192
	c0.167,0.167,1.065-0.191,1.192,0c0.149,0.225-0.051,0.921,0,1.192c0.067,0.362,0,0.823,0,1.192c0,0.397,0,0.795,0,1.192
	c0.238,0.159,0.993-0.198,1.192,0c0.113,0.113-0.01,1.018,0,1.192c0.016,0.293-0.123,0.933,0,1.192c0.075,0.159,1.059-0.134,1.192,0
	c0.113,0.113-0.009,1.019,0,1.192c0.021,0.396-0.016,0.796,0,1.192c0.238,0.159,0.994-0.198,1.192,0
	c0.113,0.113-0.009,1.019,0,1.192c0.017,0.316-0.116,0.901,0,1.192c0.093,0.232-0.17,1.022,0,1.192c0.112,0.111,1.145-0.133,1.192,0
	c0.104,0.293,0,0.879,0,1.192c0,0.398,0,0.795,0,1.193c0,0.289-0.113,0.929,0,1.191c0.064,0.149,1.067-0.126,1.192,0
	c0.16,0.16-0.075,0.967,0,1.192c0.103,0.303,0,0.871,0,1.192c0,0.142-0.094,1.115,0,1.192c0.114,0.094,1.15-0.12,1.193,0
	c0.103,0.298,0,0.874,0,1.192c0,0.32-0.104,0.893,0,1.192c0.076,0.226-0.162,1.031,0,1.192c0.124,0.125,1.128-0.15,1.191,0
	c0.112,0.264,0,0.902,0,1.192c0,0.336-0.095,0.872,0,1.192c0.064,0.219-0.153,1.039,0,1.192c0.167,0.167,1.065-0.19,1.192,0
	c0.149,0.224-0.051,0.921,0,1.192c0.068,0.362,0,0.822,0,1.192c0,0.339-0.092,0.867,0,1.192c0.062,0.217-0.15,1.041,0,1.192
	c0.125,0.125,1.128-0.15,1.192,0c0.112,0.263,0,0.902,0,1.192c0,0.347-0.087,0.857,0,1.191c0.087,0.336,0,0.846,0,1.193
	c0,0.142-0.095,1.114,0,1.191c0.114,0.095,1.151-0.119,1.192,0c0.104,0.299,0,0.875,0,1.193c0,0.335-0.094,0.872,0,1.192
	c0.095,0.319,0,0.856,0,1.192c0,0.29-0.112,0.93,0,1.192c0.064,0.149,1.066-0.125,1.193,0c0.137,0.138-0.042,0.988,0,1.192
	c0.071,0.357,0,0.827,0,1.192c0,0.397,0,0.795,0,1.191c0,0.333-0.097,0.876,0,1.193c0.065,0.22-0.155,1.037,0,1.192
	c0.076,0.078,1.178-0.083,1.191,0c0.059,0.372,0,0.815,0,1.192c0,0.397,0,0.795,0,1.192s0,0.795,0,1.191c0,0.398,0,0.796,0,1.193
	c0,0.38-0.053,0.815,0,1.191c0.053,0.378,0,0.812,0,1.193c0,0.142-0.095,1.114,0,1.191c0.114,0.094,1.15-0.119,1.191,0
	c0.104,0.3,0,0.875,0,1.193c0,0.387-0.042,0.809,0,1.192c0.044,0.384,0,0.805,0,1.192c0,0.397,0,0.794,0,1.192
	c0,0.397,0,0.795,0,1.191c0,0.389-0.039,0.807,0,1.193s0,0.803,0,1.191c0,0.398,0,0.795,0,1.193c0,0.29-0.111,0.929,0,1.192
	c0.065,0.15,1.067-0.125,1.193,0c0.129,0.129-0.029,0.999,0,1.192c0.056,0.373,0,0.813,0,1.192c0,0.396,0,0.795,0,1.192
	s0,0.794,0,1.192c0,0.395-0.021,0.798,0,1.191c0.021,0.395,0,0.799,0,1.193c0,0.396,0,0.795,0,1.191c0,0.398,0,0.795,0,1.193
	c0,1.59,0,3.18,0,4.769c0,0.398,0,0.795,0,1.193c0,0.396,0.002,0.795,0,1.191c-0.002,0.398,0,0.795,0,1.193c0,0.396,0,0.795,0,1.192
	c0,0.396,0,0.795,0,1.192c0,1.589,0,3.179,0,4.769c0,0.398,0,0.795,0,1.193c0,0.396,0,0.795,0,1.191c0,0.394,0.029,0.802,0,1.192
	c-0.029,0.392,0,0.8,0,1.192c0,0.397,0,0.795,0,1.192c0,0.291,0.112,0.929,0,1.193c-0.064,0.149-1.067-0.126-1.193,0
	c-0.127,0.129,0.029,0.998,0,1.191c-0.055,0.374,0,0.813,0,1.193c0,0.396,0,0.795,0,1.191c0,0.398,0,0.795,0,1.193
	c0,0.386,0.045,0.809,0,1.191c-0.043,0.384,0,0.807,0,1.192c0,0.398,0,0.796,0,1.193c0,0.332,0.098,0.875,0,1.191
	c-0.065,0.221,0.155,1.038,0,1.193c-0.08,0.08-1.176-0.089-1.191,0c-0.064,0.364,0,0.82,0,1.191c0,0.398,0,0.795,0,1.193
	c0,0.396,0,0.795,0,1.191c0,0.38,0.056,0.818,0,1.193c-0.056,0.373,0,0.812,0,1.191c0,0.397,0,0.795,0,1.192
	c0,0.291,0.113,0.93,0,1.193c-0.064,0.149-1.067-0.126-1.191,0c-0.129,0.128,0.028,0.999,0,1.191c-0.058,0.374,0,0.813,0,1.193
	c0,0.396,0,0.795,0,1.191c0,0.398,0,0.795,0,1.192c0,0.362,0.074,0.839,0,1.192c-0.021,0.097-1.107-0.086-1.193,0
	c-0.112,0.114,0.009,1.019,0,1.192c-0.021,0.396,0.022,0.797,0,1.193c-0.021,0.394,0,0.798,0,1.191c0,0.354,0.081,0.85,0,1.193
	c-0.023,0.102-1.102-0.091-1.192,0c-0.146,0.145,0.053,0.98,0,1.191c-0.085,0.34,0,0.843,0,1.193c0,0.349,0.086,0.855,0,1.191
	c-0.055,0.213,0.146,1.046,0,1.192c-0.167,0.167-1.064-0.19-1.192,0c-0.15,0.225,0.051,0.921,0,1.192c-0.067,0.362,0,0.823,0,1.192
	c0,0.34,0.093,0.867,0,1.192c-0.061,0.217,0.151,1.041,0,1.192c-0.125,0.126-1.128-0.149-1.192,0c-0.113,0.263,0,0.902,0,1.192
	c0,0.334,0.095,0.875,0,1.192c-0.065,0.22,0.155,1.038,0,1.192c-0.167,0.167-1.065-0.191-1.191,0c-0.151,0.225,0.049,0.92,0,1.192
	c-0.068,0.362,0,0.823,0,1.192c0,0.336,0.094,0.872,0,1.192c-0.035,0.117-1.093-0.101-1.193,0c-0.146,0.146,0.053,0.981,0,1.192
	c-0.085,0.339,0,0.843,0,1.193c0,0.319,0.103,0.892,0,1.191c-0.044,0.129-1.083-0.109-1.192,0c-0.113,0.113,0.01,1.018,0,1.192
	c-0.018,0.317,0.117,0.9,0,1.192c-0.094,0.233,0.171,1.021,0,1.192c-0.111,0.111-1.146-0.131-1.192,0c-0.104,0.296,0,0.876,0,1.192
	c0,0.351,0.085,0.854,0,1.192c-0.053,0.212,0.146,1.046,0,1.192c-0.198,0.198-0.954-0.159-1.192,0c0,0.397,0,0.795,0,1.192
	c0,0.142,0.094,1.115,0,1.193c-0.14,0.113-1.121-0.149-1.192,0c-0.116,0.244,0,0.916,0,1.191c0,0.142,0.095,1.116,0,1.192
	c-0.238,0.194-0.923-0.156-1.192,0c0,0.795,0,1.59,0,2.385c0,0.343,0.09,0.863,0,1.192c-0.031,0.111-1.096-0.097-1.192,0
	c-0.112,0.112,0.009,1.019,0,1.192c-0.016,0.296,0.123,0.928,0,1.191c-0.072,0.158-1.061-0.132-1.192,0
	c-0.113,0.114,0.01,1.02,0,1.193c-0.015,0.27,0.127,0.96,0,1.192c-0.095,0.174-1.045-0.146-1.191,0
	c-0.182,0.181,0.114,0.953,0,1.192c-0.116,0.239,0.182,1.011,0,1.192c-0.168,0.167-1.066-0.191-1.193,0
	c-0.185,0.278,0.163,0.898,0,1.192c-0.134,0.241,0.189,1.002,0,1.192c-0.167,0.167-1.065-0.19-1.191,0
	c-0.186,0.277,0.155,0.896,0,1.192c-0.127,0.24,0.186,1.006,0,1.192c-0.168,0.167-1.065-0.19-1.193,0
	c-0.184,0.276,0.18,0.911,0,1.192c-0.152,0.24,0.197,0.995,0,1.192c-0.198,0.199-0.954-0.159-1.192,0
	c-0.158,0.238,0.198,0.993,0,1.192c-0.198,0.198-0.954-0.159-1.191,0c0,0.397,0,0.795,0,1.192c0,0.142,0.094,1.114,0,1.192
	c-0.116,0.094-1.151-0.12-1.193,0c-0.103,0.298,0,0.874,0,1.191c0,0.264,0.118,0.963,0,1.193c-0.085,0.167-1.052-0.142-1.192,0
	c-0.198,0.199,0.159,0.953,0,1.191c-0.159,0.239,0.199,0.994,0,1.193c-0.198,0.199-0.953-0.159-1.192,0
	c-0.159,0.238,0.199,0.994,0,1.191c-0.126,0.126-1.128-0.149-1.192,0c-0.113,0.265,0,0.903,0,1.193c0,0.203,0.116,1.037,0,1.192
	c-0.148,0.197-1.014-0.179-1.192,0c-0.167,0.167,0.19,1.064,0,1.192c-0.275,0.184-0.892-0.147-1.192,0c0,0.397,0,0.794,0,1.192
	c0,0.29,0.113,0.929,0,1.191c-0.064,0.151-1.066-0.124-1.192,0c-0.196,0.196,0.149,0.953,0,1.193c-0.116,0.186-1.032-0.16-1.192,0
	c-0.199,0.199,0.159,0.954,0,1.191c-0.158,0.238,0.198,0.994,0,1.193c-0.199,0.198-0.953-0.159-1.191,0
	c-0.16,0.238,0.197,0.993,0,1.192c-0.199,0.198-0.994-0.198-1.193,0s0.199,0.993,0,1.192c-0.199,0.198-0.953-0.159-1.193,0
	c0,0.397,0,0.795,0,1.192c0,0.289,0.114,0.929,0,1.192c-0.063,0.149-1.065-0.126-1.191,0c-0.201,0.201,0.195,0.983,0,1.192
	c-0.187,0.201-0.997-0.195-1.191,0c-0.168,0.167,0.19,1.064,0,1.191c-0.275,0.184-0.894-0.146-1.193,0c0,0.398,0,0.795,0,1.193
	c0,0.142,0.095,1.114,0,1.191c-0.238,0.195-0.922-0.155-1.191,0c-0.159,0.238,0.198,0.994,0,1.193c-0.199,0.198-0.994-0.199-1.193,0
	c-0.198,0.198,0.199,0.993,0,1.192c-0.198,0.198-0.993-0.199-1.192,0c-0.198,0.198,0.199,0.993,0,1.191
	c-0.198,0.199-0.993-0.198-1.191,0c-0.199,0.199,0.198,0.994,0,1.193c-0.199,0.198-0.955-0.159-1.193,0c0,0.396,0,0.795,0,1.191
	c0,0.142,0.094,1.116,0,1.193c-0.238,0.194-0.923-0.156-1.192,0c-0.159,0.238,0.199,0.994,0,1.191c-0.198,0.199-0.993-0.197-1.192,0
	c-0.198,0.199,0.199,0.994,0,1.193c-0.194,0.192-1.009-0.202-1.192,0c-0.193,0.212,0.203,0.99,0,1.192
	c-0.166,0.166-1.064-0.191-1.191,0c-0.16,0.237,0.198,0.993,0,1.192c-0.199,0.198-0.994-0.199-1.193,0
	c-0.199,0.198,0.199,0.993,0,1.192c-0.199,0.198-0.994-0.199-1.192,0c-0.193,0.193,0.202,1.009,0,1.191
	c-0.213,0.194-0.99-0.202-1.192,0c-0.167,0.167,0.191,1.066,0,1.193c-0.238,0.158-0.994-0.199-1.191,0
	c-0.199,0.199,0.197,0.992,0,1.191c-0.199,0.199-0.994-0.199-1.193,0s0.199,0.994,0,1.193c-0.192,0.192-1.01-0.202-1.191,0
	c-0.193,0.212,0.201,0.99,0,1.191c-0.168,0.168-1.065-0.19-1.193,0c-0.158,0.238,0.199,0.994,0,1.192
	c-0.198,0.199-0.994-0.198-1.191,0c-0.199,0.199,0.198,0.994,0,1.192c-0.199,0.199-0.994-0.198-1.192,0
	c-0.194,0.194,0.201,1.01,0,1.193c-0.212,0.193-0.991-0.202-1.193,0c-0.167,0.166,0.191,1.064,0,1.192
	c-0.274,0.184-0.893-0.146-1.191,0c-0.16,0.238,0.198,0.993,0,1.191c-0.113,0.113-1.019-0.009-1.193,0
	c-0.396,0.021-0.796-0.017-1.191,0c-0.159,0.239,0.198,0.994,0,1.193c-0.199,0.199-0.994-0.199-1.192,0
	c-0.199,0.198,0.198,0.993,0,1.191c-0.2,0.199-0.994-0.198-1.193,0c-0.198,0.199,0.199,0.994,0,1.193
	c-0.198,0.198-0.993-0.199-1.192,0c-0.198,0.198,0.199,0.993,0,1.192c-0.198,0.198-0.954-0.159-1.192,0
	c-0.158,0.237,0.199,0.993,0,1.191c-0.113,0.113-1.018-0.008-1.191,0c-0.396,0.021-0.796-0.017-1.193,0
	c-0.158,0.239,0.199,0.994,0,1.193c-0.199,0.198-0.992-0.199-1.191,0c-0.199,0.198,0.199,0.993,0,1.191
	c-0.199,0.199-0.954-0.157-1.193,0c-0.189,0.127,0.167,1.026,0,1.193c-0.113,0.113-1.018-0.01-1.191,0
	c-0.396,0.021-0.797-0.017-1.192,0c-0.159,0.238,0.198,0.994,0,1.191c-0.199,0.199-0.994-0.197-1.192,0
	c-0.199,0.199,0.198,0.994,0,1.193c-0.199,0.197-0.954-0.16-1.193,0c-0.159,0.238,0.2,0.993,0,1.191
	c-0.198,0.199-0.953-0.158-1.191,0c-0.238,0.159-0.994-0.198-1.192,0c-0.16,0.16,0.186,1.078,0,1.193
	c-0.241,0.148-0.997-0.196-1.193,0c-0.124,0.125,0.149,1.128,0,1.191c-0.263,0.113-0.901,0-1.191,0c-0.398,0-0.795,0-1.193,0
	c-0.159,0.238,0.199,0.994,0,1.192c-0.198,0.199-0.993-0.198-1.192,0c-0.198,0.199,0.199,0.994,0,1.193
	c-0.195,0.194-0.951-0.148-1.191,0c-0.241,0.147-0.998-0.196-1.193,0c-0.166,0.167,0.191,1.064,0,1.191
	c-0.275,0.184-0.893-0.146-1.191,0c-0.16,0.238,0.199,0.994,0,1.193c-0.113,0.112-1.019-0.01-1.193,0
	c-0.27,0.013-0.96-0.128-1.191,0c-0.174,0.095,0.147,1.044,0,1.191c-0.18,0.18-0.955-0.109-1.192,0c-0.237,0.11-1.015-0.178-1.192,0
	c-0.125,0.126,0.149,1.128,0,1.192c-0.264,0.113-0.902,0-1.193,0c-0.396,0-0.794,0-1.191,0c-0.159,0.239,0.198,0.994,0,1.192
	c-0.199,0.199-0.954-0.158-1.192,0c-0.159,0.238,0.198,0.993,0,1.192c-0.113,0.113-1.019-0.01-1.192,0
	c-0.292,0.016-0.932-0.123-1.192,0c-0.16,0.076,0.133,1.059,0,1.193c-0.113,0.113-1.018-0.01-1.193,0
	c-0.278,0.014-0.948-0.126-1.191,0c-0.169,0.087,0.142,1.049,0,1.191c-0.113,0.113-1.019-0.009-1.192,0
	c-0.27,0.015-0.961-0.127-1.192,0c-0.175,0.095,0.147,1.046,0,1.193c-0.182,0.182-0.954-0.116-1.192,0
	c-0.239,0.114-1.012-0.182-1.193,0c-0.166,0.166,0.191,1.064,0,1.191c-0.277,0.186-0.898-0.163-1.191,0
	c-0.241,0.135-1.002-0.189-1.191,0c-0.168,0.167,0.189,1.065,0,1.193c-0.269,0.178-0.893-0.125-1.193,0
	c-0.234,0.096-1.021-0.172-1.193,0c-0.167,0.167,0.192,1.064,0,1.191c-0.224,0.149-0.92-0.05-1.191,0c-0.363,0.068-0.823,0-1.192,0
	c-0.397,0-0.795,0-1.192,0c-0.159,0.238,0.199,0.994,0,1.192c-0.113,0.113-1.018-0.009-1.192,0c-0.293,0.016-0.931-0.124-1.192,0
	c-0.159,0.076,0.134,1.059,0,1.192c-0.114,0.114-1.018-0.009-1.192,0c-0.396,0.021-0.796-0.016-1.192,0
	c-0.159,0.238,0.198,0.993,0,1.192c-0.146,0.146-0.98-0.053-1.192,0c-0.339,0.085-0.843,0-1.193,0c-0.332,0-0.875-0.096-1.191,0
	c-0.12,0.037,0.102,1.09,0,1.193c-0.146,0.146-0.979-0.054-1.192,0c-0.339,0.084-0.842,0-1.193,0c-0.32,0-0.889-0.103-1.191,0
	c-0.128,0.043,0.108,1.083,0,1.191c-0.146,0.146-0.98-0.053-1.193,0c-0.338,0.085-0.841,0-1.191,0c-0.322,0-0.889-0.101-1.192,0
	c-0.128,0.042,0.107,1.085,0,1.192c-0.113,0.113-1.019-0.009-1.192,0c-0.347,0.019-0.862-0.102-1.192,0
	c-0.222,0.068-1.037-0.155-1.192,0c-0.125,0.125,0.15,1.129,0,1.192c-0.264,0.112-0.902,0-1.192,0c-0.312,0-0.902-0.106-1.192,0
	c-0.229,0.084-1.028-0.165-1.192,0c-0.125,0.125,0.149,1.128,0,1.193c-0.263,0.112-0.902,0-1.192,0c-0.35,0-0.855-0.087-1.192,0
	c-0.336,0.085-0.844,0-1.192,0c-0.291,0-0.93-0.113-1.192,0c-0.149,0.063,0.126,1.065,0,1.191c-0.134,0.134-0.994-0.034-1.192,0
	c-0.365,0.064-0.819,0-1.193,0c-0.396,0-0.793,0-1.191,0c-0.353,0-0.852-0.083-1.191,0c-0.105,0.026,0.092,1.101,0,1.192
	c-0.146,0.146-0.98-0.053-1.193,0c-0.34,0.084-0.843,0-1.191,0c-0.343,0-0.865-0.091-1.193,0c-0.217,0.06-1.041-0.15-1.192,0
	c-0.126,0.126,0.149,1.128,0,1.193c-0.264,0.112-0.901,0-1.192,0c-0.36,0-0.841-0.078-1.192,0c-0.352,0.076-0.832,0-1.192,0
	c-0.352,0-0.854-0.085-1.192,0c-0.212,0.052-1.046-0.146-1.192,0c-0.09,0.089,0.103,1.168,0,1.191c-0.344,0.081-0.837,0-1.192,0
	c-0.397,0-0.795,0-1.192,0c-0.378,0-0.819-0.057-1.192,0c-0.374,0.057-0.813,0-1.192,0c-0.397,0-0.795,0-1.191,0
	c-0.398,0-0.796,0-1.193,0c-0.366,0-0.834-0.071-1.193,0c-0.092,0.019,0.085,1.108,0,1.193c-0.145,0.145-0.979-0.054-1.191,0
	c-0.338,0.084-0.842,0-1.191,0c-0.389,0-0.809-0.044-1.193,0c-0.385,0.042-0.806,0-1.192,0c-0.396,0-0.795,0-1.192,0
	s-0.794,0-1.192,0c-0.38,0-0.816-0.054-1.191,0c-0.377,0.053-0.812,0-1.193,0c-0.142,0-1.114-0.096-1.192,0
	c-0.194,0.236,0.156,0.922,0,1.191c-1.59,0-3.18,0-4.77,0c-0.795,0-1.59,0-2.385,0c-0.397,0-0.795,0-1.191,0c-1.59,0-3.18,0-4.77,0
	c-0.796,0-1.591,0-2.386,0c-0.396,0-0.795,0-1.191,0c-1.59,0-3.181,0-4.771,0c-0.795,0-1.59,0-2.385,0c-0.397,0-0.795,0-1.191,0
	c-0.795,0-1.59,0-2.385,0c-1.59,0-3.18,0-4.77,0c-0.15-0.184,0.186-1.062,0-1.191c-0.17-0.119-0.979,0-1.193,0
	c-0.397,0-0.794,0-1.192,0c-0.795,0-1.59,0-2.385,0s-1.589,0-2.385,0c-0.397,0-0.794,0-1.192,0c-0.795,0-1.59,0-2.385,0
	c-0.155-0.271,0.195-0.955,0-1.193c-0.077-0.094-1.051,0-1.191,0c-0.386,0-0.811,0.047-1.193,0c-0.381-0.045-0.806,0-1.191,0
	c-0.398,0-0.795,0-1.192,0c-0.379,0-0.819,0.057-1.192,0c-0.383-0.058-0.806,0.021-1.193,0c-0.173-0.01-1.078,0.113-1.191,0
	c-0.098-0.097,0.111-1.162,0-1.191c-0.329-0.09-0.85,0-1.192,0c-0.397,0-0.795,0-1.193,0c-0.368,0-0.832,0.068-1.191,0
	c-0.372-0.071-0.813,0.02-1.193,0c-0.174-0.01-1.078,0.112-1.191,0c-0.097-0.098,0.111-1.162,0-1.193c-0.33-0.09-0.85,0-1.192,0
	c-0.397,0-0.796,0-1.193,0c-0.354,0-0.848,0.082-1.191,0c-0.283-0.067-0.956,0.157-1.193,0c-0.19-0.127,0.168-1.025,0-1.192
	c-0.14-0.14-0.985,0.045-1.191,0c-0.352-0.076-0.832,0-1.193,0c-0.396,0-0.795,0-1.191,0c-0.346,0-0.86,0.088-1.193,0
	c-0.1-0.026,0.083-1.093,0-1.191c-0.076-0.095-1.051,0-1.191,0c-0.343,0-0.863,0.089-1.192,0c-0.345-0.095-0.835,0.019-1.192,0
	c-0.175-0.011-1.08,0.112-1.192,0c-0.103-0.103,0.118-1.157,0-1.193c-0.318-0.096-0.858,0-1.192,0c-0.397,0-0.795,0-1.192,0
	c-0.344,0-0.863,0.09-1.192,0c-0.103-0.027,0.083-1.092,0-1.192c-0.078-0.094-1.051,0-1.192,0c-0.328,0-0.882,0.099-1.193,0
	c-0.295-0.093-0.938,0.169-1.191,0c-0.191-0.127,0.167-1.025,0-1.192c-0.171-0.17-0.959,0.093-1.192,0
	c-0.292-0.116-0.876,0.017-1.193,0c-0.174-0.009-1.079,0.113-1.191,0c-0.108-0.108,0.128-1.149,0-1.191
	c-0.303-0.103-0.871,0-1.193,0c-0.396,0-0.793,0-1.191,0c-0.354,0-0.848,0.08-1.192,0c-0.103-0.025,0.09-1.103,0-1.193
	c-0.146-0.146-0.98,0.054-1.192,0c-0.338-0.085-0.843,0-1.192,0c-0.397,0-0.795,0-1.192,0c-0.156-0.27,0.194-0.954,0-1.192
	c-0.076-0.095-1.051,0-1.192,0c-0.275,0-0.947,0.116-1.192,0c-0.148-0.07,0.114-1.053,0-1.192c-0.078-0.094-1.051,0-1.192,0
	c-0.397,0-0.795,0-1.193,0c-0.158-0.238,0.199-0.993,0-1.192c-0.169-0.17-0.958,0.093-1.191,0c-0.292-0.116-0.876,0.017-1.192,0
	c-0.174-0.009-1.079,0.113-1.192,0c-0.127-0.127,0.151-1.126,0-1.191c-0.275-0.122-0.888,0.016-1.192,0
	c-0.174-0.01-1.079,0.112-1.193,0c-0.134-0.135,0.16-1.118,0-1.193c-0.26-0.123-0.898,0.016-1.191,0
	c-0.174-0.009-1.08,0.113-1.191,0c-0.135-0.134,0.158-1.116,0-1.191c-0.245-0.117-0.918,0-1.193,0c-0.317,0-0.895,0.103-1.192,0
	c-0.12-0.043,0.095-1.079,0-1.193c-0.077-0.094-1.052,0-1.192,0c-0.279,0-0.941,0.115-1.192,0c-0.146-0.066,0.111-1.056,0-1.191
	c-0.077-0.096-1.052,0-1.192,0c-0.275,0-0.948,0.115-1.192,0c-0.148-0.07,0.114-1.053,0-1.193c-0.077-0.094-1.051,0-1.192,0
	c-0.397,0-0.795,0-1.192,0c-0.159-0.238,0.199-0.993,0-1.192c-0.199-0.198-0.954,0.159-1.192,0c-0.158-0.237,0.198-0.993,0-1.192
	c-0.198-0.198-0.954,0.16-1.192,0c-0.238-0.159-0.993,0.199-1.192,0c-0.141-0.141,0.167-1.106,0-1.192c-0.229-0.117-0.929,0-1.192,0
	c-0.317,0-0.895,0.104-1.192,0c-0.119-0.041,0.094-1.078,0-1.191c-0.077-0.095-1.052,0-1.191,0c-0.398,0-0.797,0-1.193,0
	c-0.146-0.3,0.184-0.918,0-1.193c-0.127-0.19-1.025,0.167-1.193,0c-0.177-0.179,0.198-1.043,0-1.191c-0.154-0.117-0.987,0-1.191,0
	c-0.29,0-0.929,0.112-1.191,0c-0.151-0.065,0.124-1.067,0-1.193c-0.199-0.198-0.955,0.159-1.193,0c-0.159-0.238,0.199-0.994,0-1.192
	s-0.954,0.159-1.192,0c-0.237-0.158-0.993,0.199-1.192,0c-0.159-0.159,0.186-1.077,0-1.191c-0.24-0.15-0.996,0.195-1.192,0
	c-0.126-0.126,0.149-1.129,0-1.193c-0.263-0.112-0.902,0-1.191,0c-0.398,0-0.796,0-1.193,0c-0.159-0.238,0.199-0.994,0-1.191
	c-0.199-0.199-0.993,0.197-1.192,0c-0.198-0.199,0.199-0.994,0-1.193c-0.198-0.197-0.953,0.159-1.192,0
	c-0.159-0.238,0.199-0.994,0-1.191c-0.197-0.197-0.953,0.152-1.192,0c-0.28-0.18-0.915,0.184-1.191,0
	c-0.191-0.128,0.166-1.026,0-1.193c-0.202-0.201-0.958,0.169-1.193,0c-0.195-0.141,0.175-1.018,0-1.191
	c-0.201-0.201-0.986,0.196-1.192,0c-0.202-0.195,0.181-0.973,0-1.193c-0.077-0.094-1.051,0-1.192,0c-0.396,0-0.795,0-1.191,0
	c-0.159-0.238,0.197-0.993,0-1.191c-0.199-0.199-0.994,0.198-1.193,0c-0.199-0.199,0.199-0.994,0-1.192
	c-0.199-0.199-0.993,0.198-1.191,0c-0.199-0.199,0.198-0.994,0-1.193c-0.199-0.198-0.994,0.199-1.193,0
	c-0.198-0.198,0.199-0.993,0-1.191c-0.198-0.199-0.954,0.158-1.192,0c-0.155-0.271,0.195-0.955,0-1.193
	c-0.077-0.094-1.052,0-1.191,0c-0.398,0-0.796,0-1.193,0c-0.146-0.299,0.184-0.916,0-1.191c-0.127-0.191-1.025,0.167-1.191,0
	c-0.202-0.202,0.192-0.98,0-1.192c-0.184-0.202-0.999,0.193-1.193,0c-0.198-0.199,0.199-0.994,0-1.193
	c-0.198-0.198-0.994,0.199-1.192,0c-0.199-0.199,0.197-0.989,0-1.192c-0.194-0.199-0.994,0.198-1.192,0s0.199-0.993,0-1.192
	c-0.199-0.198-0.993,0.199-1.192,0c-0.198-0.197,0.199-0.993,0-1.191c-0.198-0.199-0.994,0.198-1.192,0
	c-0.198-0.199,0.198-0.994,0-1.193s-0.993,0.199-1.192,0s0.199-0.992,0-1.191s-0.953,0.158-1.191,0
	c-0.191-0.127,0.167-1.026,0-1.193c-0.202-0.202-0.98,0.194-1.193,0c-0.201-0.183,0.194-0.998,0-1.191
	c-0.199-0.199-0.992,0.198-1.191,0c-0.199-0.199,0.199-0.994,0-1.192c-0.2-0.2-0.991,0.197-1.193,0
	c-0.199-0.196,0.198-0.995,0-1.192c-0.198-0.199-0.994,0.198-1.191,0c-0.199-0.199,0.197-0.994,0-1.192
	c-0.199-0.199-0.994,0.198-1.192,0c-0.199-0.199,0.198-0.994,0-1.193c-0.199-0.197-0.994,0.199-1.192,0
	c-0.199-0.197,0.198-0.993,0-1.191c-0.199-0.199-0.954,0.159-1.193,0c-0.017-0.397,0.021-0.796,0-1.193
	c-0.009-0.174,0.113-1.078,0-1.191c-0.198-0.199-0.953,0.158-1.192,0c-0.158-0.238,0.199-0.994,0-1.193
	c-0.198-0.198-0.993,0.199-1.191,0c-0.199-0.198,0.198-0.993,0-1.191c-0.199-0.199-0.994,0.198-1.193,0
	c-0.199-0.199,0.199-0.994,0-1.192c-0.199-0.199-0.993,0.198-1.192,0c-0.198-0.199,0.199-0.994,0-1.193
	c-0.198-0.198-0.953,0.159-1.192,0c0-0.396,0-0.795,0-1.191c0-0.283,0.115-0.938,0-1.193c-0.059-0.13-1.056,0.091-1.192,0
	c-0.19-0.127,0.168-1.024,0-1.191c-0.174-0.175-1.051,0.195-1.191,0c-0.169-0.235,0.2-0.992,0-1.192
	c-0.147-0.147-1.098,0.174-1.193,0c-0.127-0.232,0.015-0.924,0-1.192c-0.009-0.175,0.113-1.08,0-1.192
	c-0.199-0.199-0.953,0.159-1.191,0c-0.16-0.239,0.199-0.994,0-1.192s-0.994,0.198-1.193,0c-0.197-0.199,0.199-0.994,0-1.192
	c-0.197-0.199-0.953,0.159-1.191,0c0-0.397,0-0.795,0-1.193c0-0.289,0.112-0.929,0-1.191c-0.064-0.149-1.067,0.125-1.192,0
	c-0.196-0.196,0.148-0.952,0-1.193c-0.115-0.185-1.033,0.161-1.192,0c-0.199-0.197,0.158-0.953,0-1.191
	c-0.159-0.238,0.198-0.994,0-1.192c-0.199-0.199-0.954,0.159-1.193,0c-0.146-0.3,0.184-0.918,0-1.192
	c-0.127-0.191-1.025,0.167-1.191,0c-0.195-0.195,0.148-0.952,0-1.192c-0.148-0.241,0.195-0.997,0-1.193
	c-0.198-0.197-0.994,0.199-1.192,0c-0.199-0.197,0.198-0.992,0-1.191c-0.199-0.199-0.955,0.159-1.193,0c0-0.398,0-0.795,0-1.193
	c0-0.289,0.114-0.929,0-1.191c-0.063-0.149-1.067,0.125-1.191,0c-0.18-0.179,0.11-0.955,0-1.193c-0.11-0.237,0.179-1.012,0-1.191
	c-0.147-0.147-1.099,0.174-1.193,0c-0.127-0.232,0.015-0.923,0-1.192c-0.008-0.174,0.113-1.079,0-1.192
	c-0.198-0.199-0.954,0.159-1.191,0c-0.159-0.238,0.198-0.993,0-1.192c-0.199-0.199-0.954,0.159-1.192,0c0-0.397,0-0.795,0-1.192
	c0-0.318,0.104-0.895,0-1.192c-0.042-0.12-1.078,0.094-1.193,0c-0.094-0.077,0-1.052,0-1.192c0-0.28,0.116-0.942,0-1.192
	c-0.066-0.146-1.056,0.112-1.191,0c-0.095-0.077,0-1.051,0-1.192c0-0.275,0.115-0.947,0-1.192c-0.071-0.148-1.053,0.114-1.193,0
	c-0.094-0.077,0-1.051,0-1.192c0-0.275,0.117-0.948,0-1.192c-0.076-0.16-1.058,0.135-1.191,0c-0.197-0.197,0.152-0.952,0-1.192
	c-0.18-0.28,0.184-0.916,0-1.193c-0.128-0.189-1.026,0.168-1.193,0c-0.18-0.179,0.111-0.953,0-1.191
	c-0.14-0.301,0.183-0.919,0-1.192c-0.127-0.19-1.024,0.167-1.191,0c-0.17-0.17,0.093-0.96,0-1.192c-0.117-0.292,0.017-0.876,0-1.192
	c-0.01-0.174,0.113-1.079,0-1.192c-0.199-0.198-0.954,0.158-1.193,0c-0.017-0.396,0.021-0.797,0-1.192
	c-0.008-0.174,0.113-1.079,0-1.191c-0.133-0.135-1.115,0.158-1.191,0c-0.124-0.263,0.016-0.9,0-1.193
	c-0.01-0.174,0.113-1.079,0-1.192c-0.199-0.198-0.954,0.159-1.192,0c0-0.397,0-0.795,0-1.192c0-0.351,0.085-0.854,0-1.192
	c-0.054-0.212,0.146-1.046,0-1.192c-0.101-0.101-1.159,0.117-1.192,0c-0.094-0.321,0-0.856,0-1.192c0-0.369,0.067-0.83,0-1.192
	c-0.051-0.271,0.148-0.968,0-1.192c-0.127-0.19-1.025,0.167-1.192,0c-0.159-0.158,0.073-0.969,0-1.191c-0.101-0.308,0-0.869,0-1.193
	c0-0.29,0.112-0.929,0-1.192c-0.065-0.15-1.067,0.125-1.193,0c-0.16-0.16,0.077-0.967,0-1.192c-0.102-0.3,0-0.872,0-1.192
	c0-0.318,0.104-0.894,0-1.192c-0.041-0.12-1.077,0.094-1.191,0c-0.095-0.078,0-1.051,0-1.192c0-0.336,0.094-0.872,0-1.192
	c-0.064-0.219,0.152-1.039,0-1.192c-0.126-0.126-1.128,0.149-1.192,0c-0.113-0.263,0-0.902,0-1.192c0-0.336,0.094-0.872,0-1.192
	c-0.095-0.319,0-0.856,0-1.192c0-0.318,0.104-0.894,0-1.192c-0.042-0.12-1.078,0.094-1.192,0c-0.095-0.076,0-1.051,0-1.192
	c0-0.346,0.087-0.857,0-1.191c-0.088-0.335,0-0.846,0-1.193c0-0.289,0.112-0.929,0-1.191c-0.064-0.15-1.067,0.124-1.193,0
	c-0.15-0.152,0.062-0.976,0-1.193c-0.091-0.325,0-0.853,0-1.191c0-0.369,0.068-0.83,0-1.193c-0.05-0.271,0.15-0.969,0-1.192
	c-0.127-0.19-1.024,0.167-1.192,0c-0.138-0.138,0.042-0.988,0-1.192c-0.071-0.357,0-0.827,0-1.192c0-0.396,0-0.795,0-1.191
	c0-0.398,0-0.795,0-1.193c0-0.371,0.066-0.827,0-1.191c-0.015-0.088-1.111,0.081-1.191,0c-0.154-0.155,0.066-0.973,0-1.193
	c-0.096-0.316,0-0.858,0-1.192c0-0.397,0-0.795,0-1.191c0-0.38,0.056-0.818,0-1.193c-0.056-0.374,0-0.813,0-1.191
	c0-0.351,0.084-0.854,0-1.193c-0.054-0.212,0.146-1.047,0-1.191c-0.084-0.084-1.176,0.091-1.193,0c-0.068-0.361,0-0.825,0-1.193
	c0-0.396,0-0.795,0-1.191c0-0.397,0-0.795,0-1.193c0-0.396,0-0.794,0-1.192c0-0.388,0.043-0.807,0-1.191
	c-0.041-0.386,0-0.806,0-1.193c0-0.396,0-0.795,0-1.191c0-0.398,0-0.795,0-1.193c0-0.371,0.065-0.827,0-1.191
	c-0.016-0.089-1.11,0.081-1.191,0c-0.154-0.155,0.066-0.973,0-1.193c-0.096-0.316,0-0.858,0-1.192c0-0.396,0-0.795,0-1.192
	c0-0.393,0.025-0.799,0-1.192c-0.025-0.393,0-0.798,0-1.191c0-0.398,0-0.795,0-1.193c0-1.59,0-3.18,0-4.769c0-0.397,0-0.796,0-1.192
	c0-0.397,0-0.796,0-1.192c0-0.398,0.002-0.795,0-1.193c-0.002-0.396,0-0.795,0-1.191c0-0.398,0-0.795,0-1.193
	c0-1.589,0-3.179,0-4.769c0-0.398,0-0.795,0-1.193c0-0.396,0-0.795,0-1.191c0-0.395-0.021-0.799,0-1.193
	c0.021-0.394,0-0.797,0-1.191c0-0.398,0-0.795,0-1.192s0-0.796,0-1.192c0-0.379-0.057-0.819,0-1.192
	c0.029-0.193-0.129-1.063,0-1.192c0.125-0.125,1.128,0.15,1.191,0c0.113-0.264,0-0.902,0-1.192c0-0.398,0-0.795,0-1.193
	c0-0.389-0.039-0.805,0-1.191c0.041-0.387,0-0.805,0-1.193c0-0.396,0-0.794,0-1.191c0-0.398,0-0.795,0-1.192
	c0-0.388-0.042-0.809,0-1.192c0.044-0.384,0-0.806,0-1.192c0-0.318-0.103-0.894,0-1.193c0.043-0.119,1.079,0.094,1.193,0
	c0.094-0.077,0-1.05,0-1.191c0-0.381-0.055-0.816,0-1.193c0.054-0.375,0-0.812,0-1.191c0-0.397,0-0.795,0-1.193
	c0-0.396,0-0.794,0-1.191c0-0.379-0.057-0.819,0-1.192c0.029-0.193-0.129-1.063,0-1.192c0.125-0.125,1.128,0.149,1.191,0
	c0.114-0.264,0-0.902,0-1.192c0-0.397,0-0.795,0-1.193c0-0.364-0.07-0.834,0-1.191c0.072-0.358,0-0.827,0-1.192
	c0-0.29-0.111-0.93,0-1.192c0.064-0.149,1.067,0.126,1.192,0c0.151-0.151-0.061-0.975,0-1.192c0.093-0.325,0-0.853,0-1.192
	c0-0.369-0.067-0.83,0-1.192c0.052-0.272-0.148-0.968,0-1.193c0.128-0.19,1.026,0.168,1.193,0c0.146-0.146-0.055-0.979,0-1.191
	c0.085-0.336,0-0.844,0-1.193s-0.085-0.854,0-1.191c0.052-0.213-0.146-1.047,0-1.192c0.091-0.091,1.168,0.104,1.192,0
	c0.082-0.343,0-0.838,0-1.192c0-0.396-0.022-0.799,0-1.192c0.021-0.396-0.021-0.796,0-1.192c0.009-0.175-0.113-1.079,0-1.192
	c0.101-0.1,1.158,0.116,1.192,0c0.094-0.32,0-0.855,0-1.192c0-0.35-0.085-0.854,0-1.192c0.053-0.212-0.146-1.047,0-1.192
	c0.1-0.101,1.157,0.117,1.191,0c0.095-0.32,0-0.856,0-1.192c0-0.369-0.066-0.83,0-1.192c0.052-0.271-0.149-0.968,0-1.192
	c0.128-0.191,1.026,0.167,1.193,0c0.157-0.157-0.071-0.97,0-1.192c0.098-0.311,0-0.864,0-1.192c0-0.318-0.104-0.895,0-1.192
	c0.041-0.119,1.077,0.094,1.192,0c0.095-0.077,0-1.052,0-1.191c0-0.331-0.098-0.879,0-1.193c0.068-0.222-0.156-1.036,0-1.192
	c0.125-0.126,1.127,0.149,1.192,0c0.112-0.263,0-0.901,0-1.192c0-0.795,0-1.59,0-2.385c0.271-0.156,0.954,0.194,1.192,0
	c0.095-0.078,0-1.051,0-1.192c0-0.275-0.116-0.947,0-1.192c0.07-0.148,1.053,0.114,1.191,0c0.095-0.077,0-1.051,0-1.192
	c0-0.397,0-0.795,0-1.192c0.239-0.158,0.994,0.198,1.193,0c0.17-0.17-0.093-0.959,0-1.192c0.116-0.292-0.017-0.876,0-1.192
	c0.009-0.174-0.113-1.079,0-1.192c0.127-0.127,1.126,0.152,1.191,0c0.121-0.275-0.016-0.888,0-1.192c0.01-0.174-0.112-1.079,0-1.191
	c0.135-0.135,1.117,0.158,1.193,0c0.123-0.262-0.016-0.9,0-1.193c0.009-0.174-0.113-1.079,0-1.191c0.134-0.135,1.115,0.159,1.191,0
	c0.117-0.245,0-0.918,0-1.193c0-0.317-0.103-0.895,0-1.192c0.042-0.119,1.079,0.095,1.193,0c0.094-0.077,0-1.052,0-1.192
	c0-0.279-0.115-0.941,0-1.192c0.066-0.146,1.055,0.111,1.191,0c0.094-0.077,0-1.051,0-1.192c0-0.274-0.116-0.947,0-1.192
	c0.07-0.148,1.053,0.114,1.193,0c0.094-0.077,0-1.051,0-1.191c0-0.398,0-0.795,0-1.193c0.238-0.159,0.993,0.199,1.192,0
	c0.198-0.199-0.159-0.954,0-1.192c0.237-0.158,0.993,0.199,1.191,0c0.199-0.198-0.159-0.953,0-1.192
	c0.159-0.238-0.198-0.993,0-1.192c0.142-0.141,1.107,0.167,1.193,0c0.117-0.229,0-0.929,0-1.191c0-0.318-0.104-0.896,0-1.193
	c0.041-0.119,1.077,0.094,1.191,0c0.095-0.077,0-1.051,0-1.191c0-0.398,0-0.795,0-1.193c0.3-0.146,0.918,0.184,1.193,0
	c0.19-0.127-0.167-1.024,0-1.191c0.177-0.179,1.044,0.197,1.192,0c0.116-0.156,0-0.989,0-1.193c0-0.29-0.113-0.929,0-1.191
	c0.063-0.15,1.066,0.124,1.191,0c0.199-0.199-0.158-0.954,0-1.193c0.239-0.159,0.994,0.199,1.193,0c0.198-0.198-0.159-0.954,0-1.192
	c0.158-0.237-0.199-0.993,0-1.191c0.159-0.161,1.077,0.185,1.192,0c0.148-0.241-0.196-0.997,0-1.193
	c0.125-0.124,1.128,0.149,1.192,0c0.112-0.263,0-0.902,0-1.191c0-0.398,0-0.795,0-1.193c0.238-0.159,0.994,0.199,1.191,0
	c0.199-0.198-0.197-0.993,0-1.192c0.199-0.198,0.994,0.199,1.193,0c0.199-0.198-0.16-0.953,0-1.192c0.238-0.159,0.992,0.199,1.191,0
	c0.197-0.197-0.152-0.952,0-1.192c0.18-0.28-0.185-0.915,0-1.192c0.127-0.189,1.026,0.167,1.193,0c0.201-0.2-0.169-0.957,0-1.192
	c0.141-0.195,1.018,0.175,1.191,0c0.2-0.199-0.195-0.986,0-1.191c0.195-0.203,0.973,0.18,1.192,0c0.095-0.077,0-1.052,0-1.193
	c0-0.396,0-0.795,0-1.191c0.239-0.159,0.994,0.198,1.192,0c0.199-0.199-0.198-0.994,0-1.193c0.199-0.198,0.993,0.199,1.192,0
	c0.199-0.198-0.199-0.993,0-1.191c0.199-0.199,0.994,0.198,1.193,0c0.198-0.199-0.199-0.994,0-1.192
	c0.198-0.199,0.993,0.198,1.191,0c0.199-0.199-0.158-0.955,0-1.193c0.271-0.155,0.955,0.195,1.192,0c0.095-0.077,0-1.05,0-1.191
	c0-0.398,0-0.795,0-1.193c0.3-0.146,0.918,0.184,1.193,0c0.19-0.127-0.168-1.024,0-1.191c0.201-0.202,0.98,0.192,1.192,0
	c0.201-0.184-0.194-0.999,0-1.193c0.198-0.198,0.993,0.199,1.192,0c0.198-0.198-0.199-0.993,0-1.191c0.199-0.2,0.989,0.197,1.191,0
	c0.2-0.195-0.197-0.995,0-1.193c0.199-0.198,0.994,0.199,1.193,0c0.199-0.198-0.199-0.993,0-1.192c0.199-0.198,0.992,0.199,1.191,0
	c0.199-0.198-0.199-0.993,0-1.191c0.199-0.199,0.994,0.198,1.193,0c0.197-0.199-0.199-0.994,0-1.193
	c0.197-0.198,0.992,0.199,1.191,0c0.199-0.198-0.158-0.953,0-1.191c0.128-0.191,1.025,0.167,1.192,0c0.202-0.202-0.192-0.98,0-1.193
	c0.184-0.201,0.999,0.194,1.192,0c0.199-0.197-0.198-0.992,0-1.191c0.199-0.199,0.993,0.199,1.192,0c0.2-0.2-0.197-0.99,0-1.192
	c0.194-0.2,0.995,0.197,1.192,0c0.198-0.199-0.198-0.994,0-1.192c0.198-0.199,0.994,0.198,1.192,0c0.199-0.199-0.198-0.994,0-1.192
	c0.199-0.199,0.994,0.198,1.193,0c0.198-0.199-0.199-0.994,0-1.192c0.198-0.199,0.993,0.198,1.191,0
	c0.199-0.199-0.159-0.954,0-1.192c0.397-0.017,0.796,0.021,1.193,0c0.173-0.01,1.078,0.113,1.191,0c0.199-0.199-0.158-0.954,0-1.193
	c0.238-0.158,0.994,0.199,1.192,0c0.199-0.198-0.198-0.993,0-1.191c0.199-0.199,0.994,0.198,1.193,0
	c0.198-0.199-0.199-0.994,0-1.193c0.198-0.198,0.992,0.199,1.191,0c0.199-0.198-0.199-0.993,0-1.191
	c0.199-0.199,0.994,0.198,1.193,0c0.197-0.199-0.159-0.954,0-1.192c0.396,0,0.795,0,1.191,0c0.283,0,0.938,0.114,1.192,0
	c0.132-0.06-0.091-1.057,0-1.193c0.128-0.19,1.025,0.168,1.192,0c0.175-0.174-0.195-1.051,0-1.191c0.235-0.169,0.991,0.201,1.193,0
	c0.146-0.147-0.174-1.098,0-1.193c0.23-0.127,0.922,0.015,1.191,0c0.175-0.009,1.079,0.113,1.192,0c0.199-0.197-0.159-0.953,0-1.191
	c0.239-0.159,0.994,0.199,1.192,0c0.199-0.199-0.198-0.994,0-1.193c0.199-0.197,0.993,0.199,1.192,0
	c0.199-0.197-0.159-0.953,0-1.191c0.397,0,0.795,0,1.193,0c0.289,0,0.929,0.112,1.191,0c0.149-0.064-0.126-1.067,0-1.193
	c0.196-0.194,0.952,0.15,1.192,0c0.186-0.114-0.16-1.032,0-1.191c0.199-0.199,0.955,0.158,1.192,0c0.238-0.159,0.993,0.198,1.192,0
	c0.199-0.199-0.159-0.954,0-1.192c0.3-0.147,0.918,0.184,1.193,0c0.19-0.128-0.168-1.026,0-1.192c0.194-0.195,0.951,0.148,1.191,0
	c0.241-0.148,0.997,0.195,1.191,0c0.199-0.199-0.197-0.993,0-1.192c0.199-0.199,0.994,0.199,1.193,0s-0.158-0.954,0-1.193
	c0.396,0,0.795,0,1.193,0c0.289,0,0.929,0.114,1.191,0c0.149-0.063-0.125-1.065,0-1.191c0.18-0.18,0.955,0.109,1.192,0
	c0.238-0.11,1.013,0.179,1.192,0c0.147-0.147-0.174-1.098,0-1.192c0.232-0.128,0.923,0.014,1.192,0c0.174-0.009,1.079,0.112,1.192,0
	c0.198-0.199-0.158-0.954,0-1.192c0.238-0.159,0.993,0.198,1.192,0c0.199-0.199-0.159-0.954,0-1.192c0.397,0,0.795,0,1.192,0
	c0.318,0,0.895,0.104,1.192,0c0.12-0.042-0.094-1.078,0-1.192c0.077-0.095,1.051,0,1.192,0c0.28,0,0.942,0.115,1.192,0
	c0.146-0.067-0.112-1.057,0-1.192c0.077-0.095,1.051,0,1.192,0c0.275,0,0.947,0.115,1.192,0c0.149-0.07-0.114-1.053,0-1.193
	c0.077-0.094,1.051,0,1.192,0c0.275,0,0.948,0.117,1.193,0c0.159-0.075-0.135-1.058,0-1.191c0.195-0.197,0.951,0.152,1.191,0
	c0.28-0.18,0.916,0.185,1.191,0c0.192-0.127-0.166-1.026,0-1.193c0.18-0.179,0.955,0.111,1.193,0c0.301-0.14,0.919,0.183,1.192,0
	c0.19-0.127-0.167-1.024,0-1.191c0.17-0.17,0.96,0.093,1.192,0c0.291-0.117,0.876,0.017,1.192,0c0.174-0.01,1.079,0.113,1.191,0
	c0.199-0.199-0.158-0.954,0-1.192c0.397-0.018,0.796,0.021,1.193,0c0.174-0.009,1.079,0.112,1.192,0c0.134-0.134-0.16-1.117,0-1.192
	c0.26-0.124,0.899,0.016,1.192,0c0.175-0.01,1.079,0.113,1.192,0c0.198-0.199-0.159-0.954,0-1.192c0.397,0,0.795,0,1.192,0
	s0.795,0,1.192,0c0.355,0,0.849,0.081,1.192,0c0.103-0.024-0.091-1.103,0-1.192c0.146-0.146,0.979,0.053,1.192,0
	c0.338-0.085,0.842,0,1.191,0c0.328,0,0.884,0.099,1.193,0c0.113-0.036-0.09-1.083,0-1.192c0.077-0.095,1.051,0,1.191,0
	c0.309,0,0.909,0.107,1.193,0c0.23-0.087,1.025,0.167,1.192,0c0.126-0.126-0.149-1.128,0-1.192c0.264-0.113,0.901,0,1.191,0
	c0.333,0,0.878,0.097,1.193,0c0.294-0.089,0.941,0.168,1.192,0c0.189-0.127-0.167-1.025,0-1.192c0.17-0.17,0.959,0.093,1.192,0
	c0.275-0.11,0.893,0,1.192,0c0.29,0,0.93,0.112,1.192,0c0.149-0.064-0.126-1.067,0-1.192c0.15-0.15,0.976,0.061,1.192,0
	c0.326-0.092,0.85,0,1.192,0c0.351,0,0.854,0.085,1.192,0c0.212-0.053,1.046,0.146,1.191,0c0.085-0.084-0.093-1.174,0-1.192
	c0.359-0.071,0.827,0,1.193,0c0.396,0,0.795,0,1.191,0c0.398,0,0.795,0,1.193,0c0.352,0,0.852,0.083,1.191,0
	c0.097-0.024-0.078-1.097,0-1.192c0.078-0.095,1.053,0,1.193,0c0.34,0,0.867,0.092,1.191,0c0.325-0.092,0.854,0,1.193,0
	c0.29,0,0.93,0.112,1.192,0c0.149-0.064-0.126-1.066,0-1.192c0.141-0.142,0.984,0.046,1.191,0c0.35-0.077,0.835,0,1.193,0
	c0.396,0,0.795,0,1.191,0c0.398,0,0.796,0,1.193,0c0.365,0,0.834,0.071,1.192,0c0.092-0.019-0.085-1.107,0-1.192
	c0.146-0.146,0.98,0.053,1.191,0c0.34-0.084,0.843,0,1.193,0c0.378,0,0.819,0.057,1.192,0c0.374-0.057,0.813,0,1.192,0
	c0.396,0,0.795,0,1.191,0c0.373,0,0.827,0.064,1.193,0c0.197-0.035,1.059,0.133,1.191,0c0.126-0.126-0.149-1.128,0-1.193
	c0.264-0.112,0.902,0,1.193,0c0.385,0,0.81,0.047,1.191,0c0.383-0.045,0.807,0,1.192,0c0.397,0,0.796,0,1.193,0
	c0.396,0,0.795,0,1.191,0c0.394,0,0.802,0.029,1.193,0c0.392-0.027,0.799,0,1.191,0c0.351,0,0.854,0.086,1.192,0
	c0.212-0.052,1.047,0.146,1.193,0C182.688,0.994,182.33,0.238,182.489,0z M212.298,85.851c-0.146-0.299,0.184-0.916,0-1.191
	c-0.127-0.191-1.025,0.167-1.191,0c-0.199-0.199,0.197-0.994,0-1.193c-0.199-0.198-0.955,0.159-1.193,0
	c-0.19-0.127,0.167-1.024,0-1.192c-0.201-0.2-0.957,0.168-1.192,0c-0.188-0.135,0.152-1.006,0-1.192c-0.077-0.094-1.051,0-1.192,0
	c-0.279,0-0.942,0.115-1.191,0c-0.157-0.072,0.131-1.062,0-1.192c-0.146-0.145-0.98,0.053-1.193,0c-0.338-0.084-0.842,0-1.191,0
	c-0.398,0-0.795,0-1.193,0c-0.794,0-1.59,0-2.384,0c-0.398,0-0.796,0-1.193,0c-0.396,0-0.795,0-1.191,0
	c-0.333,0-0.876-0.096-1.193,0c-0.221,0.067-1.037-0.154-1.192,0c-0.198,0.199,0.159,0.954,0,1.192c-0.3,0.147-0.917-0.183-1.192,0
	c-0.19,0.128,0.167,1.026,0,1.192c-0.135,0.136-0.991-0.037-1.192,0c-0.252,0.048-0.991-0.148-1.192,0
	c-0.19,0.141,0.152,1.001,0,1.192c-0.27,0.155-0.954-0.194-1.192,0c-0.095,0.077,0,1.052,0,1.193c0,0.275,0.115,0.947,0,1.191
	c-0.07,0.148-1.053-0.114-1.191,0c-0.095,0.077,0,1.052,0,1.193c0,0.323,0.1,0.886,0,1.191c-0.038,0.116-1.082-0.091-1.193,0
	c-0.094,0.077,0,1.052,0,1.192c0,0.386,0.047,0.811,0,1.193c-0.045,0.382,0,0.807,0,1.191c0,0.795,0,1.59,0,2.385s0,1.59,0,2.385
	c0,0.397,0,0.795,0,1.193c0,0.794,0,1.589,0,2.384c0,1.59,0,3.18,0,4.77c0,0.795,0,1.59,0,2.385c0,0.397,0,0.795,0,1.192
	c0,0.795,0,1.59,0,2.385c0,1.59,0,3.18,0,4.77c0,0.795,0,1.59,0,2.385c0,0.397,0,0.795,0,1.192c0,0.795,0,1.59,0,2.385
	c0,1.59,0,3.18,0,4.77c0,0.795,0,1.59,0,2.385c0,0.397,0,0.795,0,1.192c0,1.59,0,3.18,0,4.77c0,0.397,0,0.795,0,1.192
	c0,1.59,0,3.18,0,4.77c0,0.396,0,0.795,0,1.192c0,0.795,0,1.59,0,2.385c0,1.59,0,3.18,0,4.77c0,0.795,0,1.59,0,2.385
	c0,0.396,0,0.795,0,1.191c0,1.591,0,3.181,0,4.771c0,0.396,0,0.795,0,1.192c0,1.589,0,3.18,0,4.77c0,0.397,0,0.795,0,1.192
	c0,0.795,0,1.59,0,2.384c0,1.59,0,3.18,0,4.77c0,0.795,0,1.59,0,2.386c0,0.397,0,0.795,0,1.192c0,1.59,0,3.179,0,4.769
	c0,0.398,0,0.795,0,1.193c0,1.59,0,3.18,0,4.77c0,0.397,0,0.794,0,1.192c0,0.795,0,1.59,0,2.385s0,1.59,0,2.385
	c0,0.396,0,0.794,0,1.191c0,0.796,0,1.591,0,2.386c0,1.59,0,3.18,0,4.77c-0.238-0.16-0.992,0.198-1.191,0
	c-0.189-0.188,0.201-1.022,0-1.193c-0.236-0.197-0.934,0.174-1.193,0c-0.19-0.126,0.167-1.024,0-1.191
	c-0.197-0.199-0.994,0.198-1.191,0c-0.199-0.199,0.197-0.994,0-1.193c-0.188-0.188-1.023,0.202-1.192,0
	c-0.199-0.235,0.172-0.933,0-1.191c-0.128-0.191-1.026,0.167-1.192,0c-0.199-0.199,0.158-0.954,0-1.193
	c-0.238-0.159-0.994,0.199-1.193,0c-0.198-0.198,0.199-0.993,0-1.192c-0.198-0.198-0.993,0.199-1.192,0
	c-0.195-0.195,0.201-1.003,0-1.191c-0.207-0.196-0.99,0.2-1.191,0c-0.188-0.188,0.201-1.022,0-1.193
	c-0.236-0.197-0.935,0.173-1.193,0c-0.19-0.127,0.167-1.024,0-1.191c-0.198-0.2-0.991,0.198-1.191,0
	c-0.199-0.197,0.198-0.995,0-1.193c-0.188-0.188-1.023,0.202-1.193,0c-0.198-0.234,0.173-0.933,0-1.191
	c-0.127-0.191-1.024,0.167-1.192,0c-0.198-0.199,0.199-0.994,0-1.192c-0.198-0.198-0.993,0.198-1.191,0
	c-0.188-0.188,0.201-1.022,0-1.192c-0.236-0.199-0.934,0.172-1.193,0c-0.19-0.127,0.168-1.026,0-1.192
	c-0.198-0.199-0.992,0.198-1.191,0c-0.199-0.199,0.199-0.994,0-1.192c-0.188-0.188-1.023,0.201-1.193,0
	c-0.197-0.235,0.174-0.934,0-1.192c-0.127-0.19-1.024,0.167-1.191,0c-0.199-0.199,0.197-0.994,0-1.193
	c-0.199-0.198-0.994,0.199-1.192,0c-0.188-0.188,0.201-1.022,0-1.191c-0.235-0.199-0.934,0.172-1.192,0
	c-0.191-0.127,0.167-1.026,0-1.193c-0.199-0.198-0.994,0.199-1.193,0c-0.198-0.198,0.199-0.993,0-1.191
	c-0.188-0.188-1.022,0.201-1.191,0c-0.198-0.236,0.173-0.934,0-1.192c-0.127-0.191-1.025,0.167-1.192,0
	c-0.199-0.199,0.198-0.994,0-1.192c-0.199-0.199-0.994,0.198-1.193,0c-0.188-0.188,0.201-1.023,0-1.192
	c-0.234-0.199-0.933,0.172-1.191,0c-0.19-0.128,0.167-1.025,0-1.193c-0.199-0.197-0.954,0.159-1.193,0
	c-0.146-0.299,0.184-0.916,0-1.191c-0.126-0.19-1.024,0.167-1.191,0c-0.199-0.199,0.198-0.994,0-1.193
	c-0.199-0.197-0.954,0.16-1.192,0c-0.191-0.127,0.167-1.024,0-1.191c-0.199-0.199-0.955,0.158-1.193,0
	c-0.155-0.271,0.195-0.954,0-1.193c-0.076-0.094-1.05,0-1.191,0c-0.275,0-0.947,0.117-1.193,0c-0.148-0.07,0.115-1.052,0-1.191
	c-0.076-0.094-1.051,0-1.191,0c-0.398,0-0.795,0-1.193,0c-0.158-0.238,0.199-0.994,0-1.192c-0.145-0.146-0.98,0.053-1.191,0
	c-0.34-0.084-0.843,0-1.193,0c-0.396,0-0.795-0.007-1.191,0s-0.797-0.021-1.192,0c-0.174,0.01-1.079-0.113-1.192,0
	c-0.107,0.107,0.127,1.149,0,1.192c-0.304,0.101-0.869,0-1.192,0c-0.351,0-0.854-0.085-1.192,0c-0.212,0.054-1.047-0.146-1.192,0
	c-0.199,0.199,0.159,0.953,0,1.191c-0.239,0.16-0.994-0.197-1.192,0c-0.125,0.126,0.15,1.129,0,1.193c-0.264,0.112-0.902,0-1.192,0
	c-0.397,0-0.795,0-1.193,0c0,0.396,0,0.795,0,1.191c0,0.291,0.113,0.93,0,1.193c-0.063,0.149-1.065-0.126-1.191,0
	c-0.198,0.199,0.158,0.954,0,1.191c-0.238,0.159-0.994-0.197-1.192,0c-0.146,0.146,0.053,0.98,0,1.193c-0.084,0.338,0,0.842,0,1.192
	c0,0.333,0.096,0.876,0,1.192c-0.037,0.12-1.091-0.103-1.193,0c-0.145,0.146,0.055,0.979,0,1.192c-0.084,0.338,0,0.841,0,1.191
	c0,0.395-0.026,0.801,0,1.193c0.028,0.395-0.02,0.796,0,1.191c0.01,0.175-0.111,1.08,0,1.193c0.199,0.198,0.954-0.159,1.193,0
	c0.017,0.396-0.021,0.796,0,1.192c0.008,0.174-0.113,1.079,0,1.192c0.134,0.133,1.117-0.159,1.192,0
	c0.123,0.261-0.016,0.899,0,1.192c0.009,0.174-0.114,1.079,0,1.192c0.198,0.198,0.953-0.159,1.191,0
	c0.147,0.299-0.183,0.917,0,1.192c0.128,0.19,1.026-0.167,1.193,0c0.202,0.202-0.193,0.979,0,1.191c0.183,0.202,0.999-0.192,1.192,0
	c0.198,0.199-0.199,0.994,0,1.193c0.198,0.199,0.993-0.199,1.192,0s-0.159,0.953,0,1.191c0.238,0.159,0.994-0.198,1.192,0
	c0.188,0.189-0.201,1.023,0,1.193c0.235,0.198,0.934-0.173,1.192,0c0.19,0.127-0.167,1.025,0,1.191c0.199,0.199,0.993-0.198,1.192,0
	c0.198,0.199-0.199,0.994,0,1.192c0.188,0.188,1.022-0.201,1.192,0c0.198,0.236-0.173,0.935,0,1.193c0.127,0.19,1.025-0.167,1.192,0
	c0.199,0.198-0.199,0.993,0,1.191c0.199,0.199,0.994-0.198,1.191,0c0.189,0.188-0.201,1.023,0,1.193
	c0.236,0.198,0.935-0.174,1.193,0c0.19,0.127-0.167,1.024,0,1.191c0.199,0.199,0.992-0.197,1.191,0c0.199,0.199-0.199,0.994,0,1.193
	c0.189,0.188,1.023-0.202,1.193,0c0.198,0.235-0.174,0.933,0,1.192c0.127,0.19,1.025-0.168,1.191,0c0.199,0.198-0.197,0.993,0,1.192
	c0.199,0.198,0.994-0.199,1.193,0c0.188,0.188-0.202,1.022,0,1.192c0.235,0.197,0.934-0.173,1.191,0
	c0.191,0.127-0.166,1.024,0,1.191c0.199,0.199,0.994-0.198,1.193,0c0.198,0.199-0.199,0.994,0,1.193
	c0.188,0.188,1.023-0.201,1.192,0c0.198,0.236-0.174,0.933,0,1.191c0.126,0.191,1.024-0.167,1.191,0
	c0.199,0.199-0.198,0.994,0,1.193c0.199,0.197,0.994-0.199,1.193,0c0.188,0.188-0.201,1.022,0,1.191
	c0.235,0.199,0.933-0.172,1.191,0c0.191,0.128-0.167,1.026,0,1.192c0.199,0.199,0.994-0.198,1.193,0
	c0.198,0.199-0.199,0.994,0,1.192c0.188,0.189,1.022-0.2,1.192,0c0.198,0.236-0.173,0.934,0,1.192c0.127,0.19,1.024-0.166,1.191,0
	c0.199,0.199-0.198,0.994,0,1.193c0.199,0.198,0.994-0.199,1.193,0c0.188,0.188-0.201,1.022,0,1.191
	c0.236,0.199,0.933-0.172,1.192,0c0.19,0.128-0.167,1.026,0,1.193c0.198,0.198,0.993-0.199,1.192,0c0.197,0.198-0.199,0.993,0,1.191
	c0.188,0.188,1.022-0.201,1.191,0c0.199,0.236-0.172,0.934,0,1.193c0.128,0.19,1.026-0.167,1.193,0c0.199,0.198-0.199,0.993,0,1.191
	c0.199,0.199,0.993-0.198,1.191,0c0.189,0.188-0.201,1.023,0,1.192c0.236,0.199,0.934-0.172,1.193,0
	c0.189,0.128-0.167,1.025,0,1.193c0.198,0.198,0.993-0.199,1.191,0c0.199,0.198-0.198,0.992,0,1.191
	c0.188,0.188,1.023-0.201,1.192,0c0.199,0.236-0.172,0.935,0,1.193c0.128,0.19,1.026-0.167,1.193,0c0.198,0.197-0.199,0.992,0,1.191
	c0.198,0.199,0.993-0.199,1.191,0c0.188,0.188-0.201,1.023,0,1.193c0.236,0.197,0.935-0.174,1.193,0c0.19,0.127-0.167,1.024,0,1.191
	c0.198,0.199,0.993-0.199,1.191,0c0.199,0.199-0.198,0.994,0,1.193c0.188,0.188,1.023-0.202,1.192,0
	c0.199,0.235-0.172,0.933,0,1.191c0.128,0.191,1.025-0.167,1.193,0c0.197,0.198-0.199,0.995,0,1.192c0.2,0.198,0.992-0.199,1.192,0
	c0.188,0.188-0.202,1.022,0,1.193c0.235,0.197,0.933-0.174,1.192,0c0.19,0.126-0.168,1.024,0,1.191c0.199,0.201,0.987-0.197,1.191,0
	c0.198,0.189-0.154,0.96,0,1.193c0.128,0.19,1.026-0.167,1.193,0c0.199,0.197-0.199,0.993,0,1.191c0.199,0.199,0.953-0.158,1.191,0
	c0.191,0.128-0.167,1.025,0,1.192c0.199,0.199,0.954-0.159,1.193,0c0.158,0.239-0.199,0.994,0,1.192
	c0.197,0.199,0.992-0.198,1.191,0c0.199,0.199-0.199,0.994,0,1.192c0.199,0.199,0.994-0.198,1.192,0
	c0.199,0.199-0.198,0.994,0,1.193c0.199,0.197,0.994-0.199,1.192,0c0.199,0.197-0.198,0.993,0,1.191
	c0.199,0.199,0.954-0.159,1.192,0c0.16,0.239-0.199,0.994,0,1.193c0.146,0.145,0.98-0.054,1.192,0c0.339,0.084,0.842,0,1.192,0
	c0.398,0,0.795,0,1.193,0c0.158,0.238-0.199,0.992,0,1.191c0.146,0.146,0.98-0.053,1.191,0c0.34,0.085,0.843,0,1.193,0
	c0.396,0,0.794,0,1.192,0c0.397,0,0.795,0,1.191,0c0.351,0,0.854,0.085,1.193,0c0.211-0.053,1.046,0.146,1.191,0
	c0.199-0.199-0.158-0.953,0-1.191c0.396-0.018,0.796,0.021,1.193,0c0.174-0.01,1.078,0.112,1.191,0c0.135-0.135-0.16-1.117,0-1.193
	c0.261-0.124,0.9,0.016,1.192,0c0.175-0.01,1.079,0.113,1.192,0c0.173-0.171-0.193-1.056,0-1.191c0.269-0.188,0.919,0.181,1.193,0
	c0.189-0.129-0.167-1.026,0-1.193c0.201-0.201,0.979,0.193,1.191,0c0.201-0.183-0.193-0.998,0-1.192
	c0.198-0.198,0.994,0.199,1.192,0c0.199-0.198-0.198-0.993,0-1.192c0.199-0.198,0.955,0.159,1.192,0
	c0.159-0.238-0.198-0.993,0-1.192c0.199-0.198,0.993,0.199,1.192,0c0.199-0.198-0.199-0.994,0-1.191c0.196-0.196,1.003,0.2,1.193,0
	c0.194-0.209-0.201-0.992,0-1.193c0.188-0.188,1.022,0.201,1.191,0c0.198-0.235-0.172-0.933,0-1.191
	c0.127-0.191,1.025,0.167,1.192,0c0.199-0.2-0.198-0.992,0-1.193c0.197-0.199,0.995,0.198,1.192,0c0.188-0.188-0.2-1.022,0-1.192
	c0.236-0.198,0.934,0.173,1.192,0c0.19-0.127-0.166-1.025,0-1.191c0.199-0.199,0.994,0.198,1.193,0c0.197-0.199-0.199-0.994,0-1.193
	c0.188-0.188,1.022,0.201,1.191,0c0.199-0.236-0.172-0.933,0-1.191c0.128-0.191,1.025,0.166,1.191,0c0.2-0.199-0.197-0.994,0-1.193
	c0.199-0.197,0.994,0.199,1.193,0c0.188-0.188-0.201-1.022,0-1.191c0.236-0.199,0.934,0.172,1.193,0
	c0.189-0.128-0.167-1.026,0-1.193c0.197-0.199,0.992,0.199,1.191,0s-0.199-0.993,0-1.191c0.188-0.189,1.023,0.2,1.192,0
	c0.198-0.236-0.173-0.934,0-1.193c0.128-0.19,1.025,0.167,1.192,0c0.199-0.198-0.199-0.993,0-1.192c0.199-0.198,0.993,0.199,1.192,0
	c0.188-0.188-0.201-1.022,0-1.191c0.236-0.199,0.933,0.172,1.192,0c0.191-0.128-0.166-1.026,0-1.193
	c0.198-0.198,0.993,0.199,1.192,0c0.199-0.198-0.199-0.993,0-1.191c0.188-0.188,1.022,0.201,1.192,0
	c0.198-0.236-0.173-0.935,0-1.193c0.127-0.19,1.025,0.167,1.192,0c0.199-0.198-0.198-0.993,0-1.191c0.199-0.199,0.993,0.198,1.192,0
	c0.199-0.199-0.199-0.994,0-1.193c0.199-0.198,0.994,0.199,1.192,0c0.196-0.194-0.2-1.003,0-1.192c0.208-0.195,0.991,0.201,1.192,0
	c0.188-0.188-0.201-1.022,0-1.192c0.236-0.198,0.934,0.173,1.193,0c0.19-0.127-0.168-1.025,0-1.192c0.198-0.198,0.99,0.198,1.191,0
	c0.199-0.195-0.198-0.994,0-1.191c0.188-0.188,1.022,0.201,1.193,0c0.197-0.236-0.174-0.935,0-1.193c0.127-0.19,1.024,0.167,1.191,0
	c0.199-0.199-0.199-0.992,0-1.191s0.994,0.199,1.191,0c0.189-0.189-0.2-1.023,0-1.193c0.236-0.198,0.935,0.174,1.193,0
	c0.191-0.127-0.167-1.024,0-1.191c0.199-0.199,0.993,0.198,1.192,0c0.198-0.199-0.199-0.994,0-1.192
	c0.188-0.188,1.022,0.201,1.192,0c0.198-0.236-0.173-0.935,0-1.192c0.127-0.191,1.025,0.166,1.192,0
	c0.199-0.199-0.198-0.994,0-1.192c0.199-0.199,0.994,0.198,1.192,0c0.188-0.188-0.201-1.022,0-1.193
	c0.235-0.197,0.934,0.174,1.192,0c0.19-0.126-0.167-1.024,0-1.191c0.199-0.199,0.993,0.199,1.192,0c0.198-0.199-0.198-0.994,0-1.193
	c0.188-0.188,1.022,0.202,1.192,0c0.198-0.235-0.173-0.933,0-1.191c0.127-0.191,1.024,0.167,1.192,0
	c0.199-0.199-0.198-0.994,0-1.193c0.199-0.198,0.994,0.199,1.192,0c0.188-0.188-0.201-1.022,0-1.192
	c0.235-0.197,0.934,0.174,1.192,0c0.19-0.126-0.167-1.024,0-1.191c0.199-0.199,0.953,0.159,1.192,0c0.159-0.239-0.198-0.994,0-1.193
	c0.198-0.198,0.993,0.199,1.192,0c0.199-0.198-0.199-0.992,0-1.191c0.195-0.196,1.003,0.201,1.191,0
	c0.196-0.208-0.199-0.992,0-1.193c0.189-0.188,1.023,0.202,1.193,0c0.198-0.234-0.172-0.933,0-1.191
	c0.127-0.191,1.025,0.167,1.191,0c0.199-0.199-0.158-0.954,0-1.192c0.271-0.156,0.955,0.194,1.193,0c0.094-0.077,0-1.052,0-1.192
	c0-0.397,0-0.795,0-1.192c0.238-0.159,0.994,0.198,1.192,0c0.154-0.154-0.066-0.972,0-1.192c0.096-0.317,0-0.859,0-1.192
	c0-0.795,0-1.59,0-2.385c0.27-0.156,0.954,0.194,1.191,0c0.095-0.077,0-1.052,0-1.193c0-0.396,0-0.794,0-1.191
	c-0.269-0.156-0.954,0.194-1.191,0c-0.095-0.077,0-1.052,0-1.192c0-0.309,0.106-0.907,0-1.192c-0.087-0.23,0.167-1.026,0-1.192
	c-0.126-0.126-1.128,0.149-1.192,0c-0.113-0.263,0-0.902,0-1.193c0-0.226,0.119-1.008,0-1.191c-0.108-0.167-1.017,0.117-1.193,0
	c-0.19-0.128,0.168-1.026,0-1.193c-0.2-0.201-0.979,0.194-1.191,0c-0.201-0.182,0.193-0.998,0-1.191
	c-0.199-0.199-0.994,0.199-1.193,0c-0.197-0.199,0.199-0.994,0-1.193c-0.197-0.197-0.953,0.16-1.191,0
	c-0.159-0.238,0.199-0.992,0-1.191c-0.146-0.146-0.98,0.054-1.192,0c-0.339-0.085-0.842,0-1.192,0c-0.332,0-0.877,0.096-1.192,0
	c-0.12-0.036,0.103-1.09,0-1.192c-0.146-0.146-0.98,0.053-1.192,0c-0.339-0.084-0.842,0-1.192,0c-0.392,0-0.802-0.033-1.192,0
	c-0.391,0.032-0.801,0-1.192,0c-0.29,0-0.929-0.113-1.192,0c-0.15,0.064,0.125,1.066,0,1.192c-0.198,0.199-0.954-0.159-1.192,0
	c-0.396,0.017-0.796-0.021-1.192,0c-0.174,0.009-1.079-0.113-1.192,0c-0.199,0.199,0.159,0.953,0,1.191
	c-0.238,0.16-0.993-0.197-1.192,0c-0.199,0.199,0.199,0.994,0,1.193s-0.994-0.199-1.193,0c-0.197,0.199,0.199,0.994,0,1.191
	c-0.197,0.199-0.992-0.197-1.191,0c-0.199,0.199,0.199,0.994,0,1.193s-0.994-0.199-1.191,0c-0.199,0.199,0.158,0.954,0,1.191
	c-0.24,0.159-0.994-0.197-1.193,0c-0.199,0.199,0.199,0.994,0,1.193s-0.993-0.199-1.191,0c-0.196,0.195,0.2,1.003,0,1.192
	c-0.209,0.195-0.992-0.201-1.193,0c-0.188,0.188,0.202,1.022,0,1.192c-0.235,0.198-0.934-0.173-1.192,0
	c-0.19,0.127,0.167,1.025,0,1.192c-0.2,0.198-0.991-0.198-1.192,0c-0.199,0.195,0.199,0.993,0,1.191
	c-0.188,0.188-1.021-0.201-1.192,0c-0.198,0.236,0.173,0.935,0,1.193c-0.127,0.19-1.026-0.167-1.192,0
	c-0.198,0.199,0.198,0.993,0,1.191c-0.198,0.199-0.993-0.197-1.192,0c-0.188,0.189,0.202,1.023,0,1.193
	c-0.235,0.198-0.933-0.173-1.192,0c-0.191,0.127,0.168,1.024,0,1.192c-0.198,0.198-0.993-0.198-1.192,0s0.199,0.993,0,1.192
	c-0.188,0.188-1.022-0.202-1.192,0c-0.199,0.235,0.173,0.934,0,1.192c-0.127,0.19-1.025-0.167-1.192,0
	c-0.198,0.198,0.198,0.994,0,1.192s-0.993-0.198-1.192,0c-0.188,0.188,0.201,1.022,0,1.192c-0.236,0.197-0.934-0.174-1.191,0
	c-0.192,0.127,0.167,1.024,0,1.191c-0.199,0.199-0.994-0.197-1.193,0c-0.199,0.199,0.199,0.994,0,1.193
	c-0.188,0.188-1.022-0.201-1.193,0c-0.197,0.235,0.174,0.933,0,1.191c-0.126,0.191-1.024-0.167-1.191,0
	c-0.198,0.199,0.199,0.994,0,1.193c-0.198,0.198-0.994-0.199-1.191,0c-0.189,0.188,0.2,1.022,0,1.191
	c-0.236,0.198-0.935-0.172-1.193,0c-0.191,0.127,0.167,1.026,0,1.192c-0.199,0.199-0.954-0.159-1.192,0
	c-0.158,0.239,0.199,0.994,0,1.193c-0.188,0.188-1.022-0.201-1.192,0c-0.198,0.235,0.173,0.933,0,1.191
	c-0.127,0.19-1.025-0.166-1.192,0c-0.198,0.199,0.199,0.994,0,1.193c-0.198,0.198-0.993-0.199-1.191,0
	c-0.188,0.188,0.2,1.022,0,1.191c-0.236,0.199-0.935-0.172-1.193,0c-0.19,0.128,0.167,1.026,0,1.193
	c-0.199,0.198-0.954-0.16-1.192,0c0-3.18,0-6.359,0-9.54c0-0.795,0-1.59,0-2.385c0-1.59,0-3.18,0-4.769c0-0.795,0-1.59,0-2.385
	c0-0.398,0-0.795,0-1.193c0-1.59,0-3.179,0-4.769c0-0.397,0-0.795,0-1.192c0-1.591,0-3.181,0-4.771c0-0.396,0-0.795,0-1.191
	c0-0.795,0-1.59,0-2.385c0-1.59,0-3.18,0-4.771c0-0.795,0-1.59,0-2.384c0-0.397,0-0.795,0-1.192c0-1.59,0-3.18,0-4.771
	c0-0.396,0-0.795,0-1.191c0-1.59,0-3.18,0-4.77c0-0.397,0-0.795,0-1.192c0-0.795,0-1.59,0-2.385c0-1.59,0-3.18,0-4.77
	c0-0.795,0-1.59,0-2.385c0-0.397,0-0.795,0-1.192c0-1.59,0-3.18,0-4.77c0-0.397,0-0.795,0-1.192c0-1.59,0-3.18,0-4.77
	c0-0.396,0-0.795,0-1.192c0-0.795,0-1.59,0-2.385c0-1.59,0-3.18,0-4.77c0-0.795,0-1.59,0-2.385c0-0.396,0-0.795,0-1.191
	c0-1.59,0-3.181,0-4.771c0-0.396,0-0.795,0-1.192c0-1.589,0-3.179,0-4.77c0-0.397,0-0.795,0-1.192c0-0.795,0-1.59,0-2.384
	c0-0.796,0-1.59,0-2.385c0-0.398,0-0.795,0-1.193c0-0.396,0-0.795,0-1.191c0-0.386,0.046-0.811,0-1.193
	c-0.046-0.389,0.021-0.8,0-1.191c-0.009-0.175,0.113-1.08,0-1.193c-0.198-0.198-0.953,0.16-1.192,0c0-0.397,0-0.794,0-1.192
	c0-0.795,0-1.59,0-2.385C213.093,85.851,212.695,85.851,212.298,85.851z M110.946,238.475c-0.396,0-0.795,0-1.192,0
	c-0.337,0-0.871-0.093-1.192,0c-0.219,0.063-1.039-0.152-1.192,0c-0.198,0.199,0.159,0.955,0,1.192
	c-0.396,0.017-0.796-0.021-1.192,0c-0.175,0.01-1.079-0.113-1.192,0c-0.17,0.171,0.192,1.061,0,1.192
	c-0.271,0.187-0.919-0.183-1.192,0c-0.19,0.128,0.166,1.025,0,1.193c-0.201,0.201-0.98-0.194-1.192,0
	c-0.201,0.182,0.194,0.998,0,1.191c-0.199,0.199-0.994-0.198-1.192,0c-0.198,0.199,0.198,0.994,0,1.193
	c-0.172,0.172-1.056-0.195-1.192,0c-0.127,0.18,0.013,0.964,0,1.191c-0.01,0.175,0.113,1.08,0,1.193
	c-0.199,0.197-0.954-0.16-1.192,0c0,1.59,0,3.179,0,4.769s0,3.18,0,4.77s0,3.18,0,4.77c0,0.796,0,1.591,0,2.386
	c0,0.396,0,0.793,0,1.191c0,0.795,0,1.59,0,2.385c0,1.59,0,3.18,0,4.77c0,0.795,0,1.59,0,2.386c0,0.396,0,0.794,0,1.191
	c0,0.795,0,1.59,0,2.385c0,1.59,0,3.18,0,4.769c0,0.797,0,1.59,0,2.386c0,0.397,0,0.795,0,1.192c0,0.795,0,1.59,0,2.385
	c0,1.589,0,3.179,0,4.77c0,0.795,0,1.59,0,2.385c0,0.397,0,0.795,0,1.192c0,0.795,0,1.59,0,2.384c0,1.59,0,3.18,0,4.77
	c0,0.398,0,0.795,0,1.193c0,0.394-0.022,0.798,0,1.192c0.021,0.396-0.021,0.796,0,1.192c0.01,0.174-0.113,1.079,0,1.192
	c0.199,0.198,0.954-0.159,1.192,0c0.018,0.396-0.021,0.796,0,1.191c0.009,0.176-0.112,1.08,0,1.193c0.134,0.134,1.116-0.16,1.192,0
	c0.124,0.261-0.016,0.9,0,1.191c0.009,0.175-0.113,1.08,0,1.193c0.198,0.198,0.954-0.159,1.192,0c0.157,0.266-0.196,0.959,0,1.192
	c0.08,0.096,1.049,0,1.192,0c0.283,0,0.938-0.115,1.192,0c0.131,0.059-0.091,1.057,0,1.192c0.127,0.19,1.026-0.167,1.192,0
	c0.105,0.105-0.125,1.151,0,1.192c0.307,0.1,0.867,0,1.192,0c0.397,0,0.795,0,1.192,0s0.795,0,1.192,0c0.796,0,1.589,0,2.386,0
	c0.793,0,1.59,0,2.383,0c0.398,0,0.795,0,1.193,0c0.795,0,1.59,0,2.385,0c6.359,0,12.719,0,19.077,0c3.18,0,6.36,0,9.54,0
	c1.59,0,3.18,0,4.77,0c0.795,0,1.59,0,2.385,0c0.396,0,0.795,0,1.191,0c0.796,0,1.591,0,2.386,0c3.18,0,6.359,0,9.539,0
	c1.589,0,3.179,0,4.769,0c0.795,0,1.59,0,2.385,0c0.398,0,0.795,0,1.192,0c0.796,0,1.59,0,2.385,0c3.18,0,6.36,0,9.54,0
	c1.59,0,3.179,0,4.769,0c0.796,0,1.59,0,2.385,0c0.397,0,0.795,0,1.192,0c0.796,0,1.591,0,2.386,0c6.358,0,12.718,0,19.078,0
	c3.18,0,6.358,0,9.538,0c1.59,0,3.18,0,4.77,0c0.795,0,1.59,0,2.385,0c0.397,0,0.795,0,1.192,0c0.795,0,1.59,0,2.385,0
	c3.18,0,6.358,0,9.538,0c1.591,0,3.181,0,4.771,0c0.795,0,1.59,0,2.385,0c0.397,0,0.795,0,1.192,0c0.795,0,1.59,0,2.385,0
	c3.18,0,6.359,0,9.539,0c1.59,0,3.18,0,4.77,0c0.795,0,1.59,0,2.385,0c0.397,0,0.795,0,1.192,0c0.795,0,1.59,0,2.385,0
	c0.397,0,0.794,0,1.192,0c0.795,0,1.59,0,2.385,0s1.59,0,2.385,0s1.59,0,2.385,0c0.396,0,0.795,0,1.192,0
	c0.395,0,0.799,0.022,1.192,0c0.396-0.023,0.796,0.021,1.192,0c0.174-0.01,1.079,0.113,1.191,0c0.199-0.199-0.158-0.954,0-1.192
	c0.239-0.159,0.994,0.198,1.193,0c0.125-0.126-0.149-1.129,0-1.192c0.263-0.113,0.902,0,1.192,0c0.205,0,1.033,0.116,1.192,0
	c0.189-0.141-0.152-1.001,0-1.192c0.271-0.155,0.954,0.195,1.192,0c0.095-0.077,0-1.052,0-1.193c0-0.274-0.116-0.947,0-1.191
	c0.069-0.148,1.053,0.114,1.191,0c0.095-0.077,0-1.052,0-1.193c0-0.396,0-0.795,0-1.191c0.239-0.159,0.994,0.198,1.193,0
	c0.154-0.155-0.067-0.973,0-1.192c0.096-0.317,0-0.859,0-1.192c0-0.795,0-1.591,0-2.386s0-1.59,0-2.385s0-1.589,0-2.385
	c0-3.179,0-6.358,0-9.538c0-1.59,0-3.18,0-4.77c0-0.796,0-1.589,0-2.386c0-0.396,0-0.793,0-1.191c0-0.795,0-1.59,0-2.385
	c0-3.18,0-6.359,0-9.539c0-1.59,0-3.18,0-4.77c0-0.795,0-1.59,0-2.385c0-0.396,0-0.795,0-1.192c0-0.795,0-1.59,0-2.385
	s0-1.59,0-2.385s0-1.59,0-2.385c0-0.397,0-0.795,0-1.192c0-0.795,0-1.59,0-2.385c0-0.397,0-0.795,0-1.192c0-0.794,0-1.59,0-2.384
	c-0.238-0.16-0.994,0.197-1.193,0c-0.198-0.199,0.16-0.955,0-1.193c-0.158-0.238,0.199-0.994,0-1.191
	c-0.186-0.188-1.027,0.201-1.191,0c-0.184-0.226,0.203-0.99,0-1.193c-0.198-0.198-0.994,0.199-1.192,0
	c-0.199-0.198,0.198-0.994,0-1.191c-0.203-0.203-0.974,0.188-1.192,0c-0.201-0.174,0.189-1.004,0-1.193
	c-0.199-0.198-0.993,0.199-1.192,0c-0.199-0.198,0.199-0.993,0-1.192c-0.19-0.19-0.952,0.137-1.193,0s-1.001,0.191-1.191,0
	c-0.126-0.126,0.149-1.128,0-1.192c-0.263-0.112-0.902,0-1.192,0c-0.397,0-0.796,0-1.192,0c-0.381,0-0.817,0.055-1.192,0
	c-0.39-0.056-0.801,0.045-1.193,0c-0.795,0-1.59,0-2.383,0c-0.301,0.147-0.918-0.183-1.193,0c-0.191,0.128,0.167,1.025,0,1.192
	c-0.17,0.171-0.96-0.093-1.193,0c-0.291,0.117-0.874-0.017-1.191,0c-0.175,0.01-1.08-0.113-1.192,0
	c-0.198,0.199,0.159,0.954,0,1.192c-0.239,0.16-0.993-0.198-1.192,0c-0.188,0.188,0.201,1.022,0,1.193
	c-0.236,0.197-0.934-0.174-1.192,0c-0.19,0.126,0.167,1.024,0,1.191s-1.065-0.19-1.192,0c-0.119,0.179,0,0.972,0,1.193
	c0,0.317,0.103,0.894,0,1.191c-0.042,0.12-1.078-0.094-1.192,0c-0.095,0.077,0,1.051,0,1.193c0,0.396,0,0.794,0,1.191
	c-0.271,0.156-0.955-0.194-1.192,0c-0.095,0.078,0,1.051,0,1.192c0,0.386,0.046,0.811,0,1.192c-0.046,0.383,0,0.808,0,1.192
	c0,0.795,0,1.59,0,2.385c0,1.59,0,3.18,0,4.77c0,0.397,0,0.795,0,1.192c0,0.795,0,1.59,0,2.385c0,1.59,0,3.18,0,4.77
	c0,3.18,0,6.359,0,9.539c0,0.795,0,1.59,0,2.385c0,1.59,0,3.18,0,4.77s0,3.18,0,4.77c0,0.397,0,0.795,0,1.192
	c0,0.795,0,1.59,0,2.385c-1.59,0-3.18,0-4.77,0s-3.18,0-4.77,0c-0.398,0-0.795,0-1.192,0c-0.796,0-1.59,0-2.385,0
	c-1.59,0-3.18,0-4.77,0c-0.397,0-0.795,0-1.192,0c-0.795,0-1.59,0-2.385,0c-1.59,0-3.18,0-4.77,0c-0.398,0-0.795,0-1.191,0
	c-0.797,0-1.59,0-2.385,0c-1.591,0-3.181,0-4.771,0c-0.396,0-0.795,0-1.192,0c-0.795,0-1.59,0-2.385,0c-1.59,0-3.18,0-4.77,0
	c-0.397,0-0.795,0-1.191,0c-0.796,0-1.59,0-2.387,0c-1.588,0-3.178,0-4.769,0c-0.396,0-0.795,0-1.192,0c-0.794,0-1.59,0-2.384,0
	c-1.591,0-3.181,0-4.771,0c-0.397,0-0.795,0-1.191,0c-0.796,0-1.59,0-2.386,0c-1.589,0-3.179,0-4.769,0c-3.181,0-6.36,0-9.54,0
	c-0.397,0-0.795,0-1.192,0c-0.795,0-1.59,0-2.385,0c-1.59,0-3.18,0-4.77,0c-0.396,0-0.795,0-1.191,0c-0.795,0-1.59,0-2.385,0
	c-1.591,0-3.181,0-4.771,0c-0.396,0-0.795,0-1.191,0c-0.796,0-1.591,0-2.386,0c-1.59,0-3.18,0-4.77,0c-3.18,0-6.358,0-9.538,0
	c-0.397,0-0.795,0-1.193,0c-0.794,0-1.59,0-2.384,0c-1.59,0-3.18,0-4.77,0c-0.398,0-0.795,0-1.193,0c-0.795,0-1.589,0-2.385,0
	c-1.59,0-3.179,0-4.769,0c-0.397,0-0.795,0-1.192,0c-0.795,0-1.591,0-2.385,0c-1.59,0-3.18,0-4.77,0c-3.18,0-6.359,0-9.539,0
	c0-0.795,0-1.59,0-2.385c0-1.59,0-3.18,0-4.77c0-0.397,0-0.796,0-1.192c0-0.795,0-1.59,0-2.385s0-1.59,0-2.385s0-1.59,0-2.385
	c0-0.397,0-0.795,0-1.192c0-0.795,0-1.59,0-2.385c0-1.59,0-3.18,0-4.77c0-3.179,0-6.358,0-9.539c0-0.795,0-1.59,0-2.385
	c0-0.396,0-0.795,0-1.192c0-0.794,0-1.59,0-2.385c0-0.397,0-0.795,0-1.192s0-0.795,0-1.192c0-0.36,0.076-0.841,0-1.192
	c-0.061-0.278,0.154-0.96,0-1.192c-0.127-0.19-1.025,0.167-1.192,0c-0.169-0.168,0.09-0.961,0-1.191
	c-0.117-0.302,0.177-0.928,0-1.193c-0.128-0.19-1.026,0.167-1.192,0c-0.19-0.189,0.135-0.95,0-1.191
	c-0.163-0.294,0.186-0.915,0-1.193c-0.127-0.19-1.025,0.167-1.192,0c-0.2-0.2,0.196-0.988,0-1.191c-0.192-0.198-0.958,0.156-1.193,0
	c-0.189-0.129,0.167-1.026,0-1.193c-0.197-0.198-0.952,0.16-1.191,0c-0.155-0.27,0.194-0.954,0-1.192c-0.077-0.094-1.051,0-1.192,0
	c-0.307,0-0.907,0.107-1.192,0c-0.23-0.086-1.026,0.166-1.192,0c-0.126-0.126,0.149-1.128,0-1.192c-0.263-0.112-0.902,0-1.193,0
	c-0.396,0-0.793,0-1.191,0C112.536,238.475,111.741,238.475,110.946,238.475z M88.511,39.084h7.844
	c5.063,0,8.488,0.232,10.272,0.697s3.142,1.229,4.071,2.291s1.511,2.245,1.744,3.548c0.231,1.304,0.348,3.864,0.348,7.683v14.119
	c0,3.62-0.17,6.039-0.51,7.26c-0.341,1.22-0.934,2.175-1.781,2.863c-0.846,0.689-1.893,1.171-3.137,1.444
	c-1.246,0.274-3.122,0.411-5.629,0.411H88.511V39.084z M98.995,45.981v26.521c1.51,0,2.439-0.302,2.789-0.908
	c0.348-0.606,0.522-2.254,0.522-4.943V50.986c0-1.825-0.059-2.996-0.175-3.511s-0.382-0.893-0.797-1.133
	S100.14,45.981,98.995,45.981z M141.712,57.959v8.094c0,2.972-0.149,5.151-0.448,6.537s-0.938,2.681-1.918,3.885
	s-2.237,2.092-3.772,2.664c-1.535,0.573-3.3,0.859-5.292,0.859c-2.225,0-4.108-0.245-5.652-0.734s-2.743-1.229-3.599-2.217
	c-0.855-0.987-1.465-2.183-1.83-3.586c-0.365-1.402-0.548-3.507-0.548-6.312v-8.467c0-3.071,0.332-5.47,0.996-7.197
	c0.664-1.726,1.859-3.112,3.586-4.158s3.935-1.568,6.624-1.568c2.258,0,4.196,0.336,5.814,1.008
	c1.619,0.673,2.868,1.549,3.748,2.627c0.88,1.08,1.481,2.191,1.806,3.338C141.55,53.875,141.712,55.619,141.712,57.959z
	 M131.651,55.469c0-1.693-0.092-2.76-0.274-3.199s-0.572-0.66-1.17-0.66s-0.996,0.221-1.195,0.66s-0.299,1.506-0.299,3.199v14.917
	c0,1.561,0.1,2.577,0.299,3.051c0.199,0.473,0.589,0.71,1.17,0.71c0.598,0,0.992-0.216,1.184-0.648
	c0.19-0.431,0.286-1.36,0.286-2.789V55.469z M180.097,46.355L176.081,79.4h-10.92c-0.594-4.037-1.289-9.357-2.085-15.963
	c-0.273,2.906-0.649,5.837-1.131,8.791l-1.104,7.172h-10.944l-4.265-33.045h8.671c0.066,0.862,0.8,7.171,2.199,18.926
	c0.11-1.21,0.863-7.519,2.26-18.926h8.33l2.035,18.926c0.322-5.527,1.092-11.835,2.308-18.926H180.097z M194.5,46.355l-0.174,3.044
	c0.73-1.214,1.622-2.125,2.677-2.731c1.055-0.607,2.271-0.91,3.648-0.91c1.727,0,3.138,0.406,4.233,1.22s1.801,1.839,2.117,3.075
	c0.314,1.237,0.473,3.3,0.473,6.188V79.4h-10.061V56.516c0-2.274-0.074-3.661-0.225-4.159c-0.148-0.498-0.564-0.747-1.244-0.747
	c-0.715,0-1.163,0.286-1.346,0.859c-0.183,0.572-0.273,2.104-0.273,4.594V79.4h-10.061V46.355H194.5z M223.845,39.084V79.4h-10.359
	V39.084H223.845z M252.767,57.959v8.094c0,2.972-0.149,5.151-0.448,6.537s-0.938,2.681-1.918,3.885s-2.237,2.092-3.772,2.664
	c-1.535,0.573-3.3,0.859-5.292,0.859c-2.225,0-4.108-0.245-5.652-0.734s-2.743-1.229-3.599-2.217
	c-0.855-0.987-1.465-2.183-1.83-3.586c-0.365-1.402-0.548-3.507-0.548-6.312v-8.467c0-3.071,0.332-5.47,0.996-7.197
	c0.664-1.726,1.859-3.112,3.586-4.158s3.935-1.568,6.624-1.568c2.258,0,4.196,0.336,5.814,1.008
	c1.619,0.673,2.868,1.549,3.748,2.627c0.88,1.08,1.481,2.191,1.806,3.338C252.604,53.875,252.767,55.619,252.767,57.959z
	 M242.706,55.469c0-1.693-0.092-2.76-0.274-3.199s-0.572-0.66-1.17-0.66s-0.996,0.221-1.195,0.66s-0.299,1.506-0.299,3.199v14.917
	c0,1.561,0.1,2.577,0.299,3.051c0.199,0.473,0.589,0.71,1.17,0.71c0.598,0,0.992-0.216,1.184-0.648
	c0.19-0.431,0.286-1.36,0.286-2.789V55.469z M267.618,59.154h-9.438v-2.216c0-2.557,0.295-4.528,0.884-5.914s1.772-2.61,3.549-3.673
	s4.084-1.594,6.923-1.594c3.403,0,5.968,0.602,7.694,1.805c1.727,1.204,2.765,2.682,3.113,4.433
	c0.349,1.752,0.523,5.358,0.523,10.82V79.4h-9.787v-2.944c-0.614,1.181-1.407,2.066-2.378,2.656
	c-0.972,0.591-2.13,0.886-3.474,0.886c-1.761,0-3.375-0.494-4.844-1.481c-1.47-0.987-2.204-3.15-2.204-6.487v-2.715
	c0-2.473,0.39-4.158,1.171-5.055c0.779-0.896,2.714-1.942,5.802-3.138c3.304-1.295,5.071-2.167,5.304-2.614
	c0.232-0.449,0.35-1.361,0.35-2.74c0-1.726-0.129-2.851-0.387-3.374c-0.258-0.522-0.685-0.784-1.282-0.784
	c-0.681,0-1.104,0.221-1.271,0.66s-0.248,1.581-0.248,3.424V59.154z M270.806,63.688c-1.611,1.179-2.545,2.166-2.802,2.963
	c-0.258,0.797-0.386,1.942-0.386,3.437c0,1.71,0.111,2.813,0.336,3.312c0.224,0.498,0.668,0.748,1.332,0.748
	c0.631,0,1.042-0.195,1.232-0.586c0.19-0.39,0.287-1.415,0.287-3.075V63.688z M309.762,39.084V79.4h-10.061v-2.396
	c-0.963,0.998-1.976,1.747-3.037,2.245c-1.063,0.499-2.176,0.749-3.338,0.749c-1.561,0-2.913-0.411-4.059-1.232
	c-1.146-0.822-1.88-1.772-2.204-2.852c-0.323-1.079-0.485-2.839-0.485-5.279V55.17c0-2.539,0.162-4.341,0.485-5.403
	c0.324-1.062,1.066-1.996,2.229-2.802c1.161-0.805,2.548-1.207,4.158-1.207c1.245,0,2.387,0.225,3.424,0.674s1.98,1.123,2.826,2.021
	v-9.369H309.762z M299.701,54.672c0-1.211-0.104-2.024-0.311-2.439c-0.208-0.415-0.619-0.623-1.232-0.623
	c-0.598,0-1.001,0.187-1.208,0.561c-0.208,0.373-0.312,1.207-0.312,2.502v16.188c0,1.344,0.1,2.229,0.299,2.651
	c0.199,0.424,0.581,0.636,1.146,0.636c0.647,0,1.079-0.237,1.295-0.71c0.216-0.474,0.323-1.632,0.323-3.474V54.672z"/>
</svg>
