<?xml version="1.0" encoding="utf-8"?>
<!-- Generator: Adobe Illustrator 15.0.0, SVG Export Plug-In  -->
<!DOCTYPE svg PUBLIC "-//W3C//DTD SVG 1.1//EN" "http://www.w3.org/Graphics/SVG/1.1/DTD/svg11.dtd" [
	<!ENTITY ns_flows "http://ns.adobe.com/Flows/1.0/">
<svg version="1.1"
	 xmlns="http://www.w3.org/2000/svg" xmlns:xlink="http://www.w3.org/1999/xlink" xmlns:a="http://ns.adobe.com/AdobeSVGViewerExtensions/3.0/"
	 x="0px" y="0px" width="400px" height="400px" viewBox="-3 -25.519 400 400"
	 overflow="visible" enable-background="new -3 -25.519 400 400" xml:space="preserve">
<defs>
</defs>
<path d="M225.937,12.531c-16.707-16.709-44.046-16.709-60.753,0L12.529,165.184c-16.706,16.707-16.706,44.047,0,60.758
	L121.46,334.869c7.585,6.607,17.498,10.612,28.347,10.612h91.511c11.925,0,22.72-4.834,30.531-12.645l106.822-106.819
	c16.707-16.711,16.707-44.05,0-60.76L225.937,12.531z M115.076,215.209c-1.114,1.118-2.653,1.807-4.354,1.807H97.665
	c-1.548,0-2.961-0.573-4.042-1.514L78.08,199.961c-2.385-2.381-2.385-6.285,0-8.667L191.228,78.146c2.383-2.387,6.281-2.387,8.666,0
	l21.792,21.792c2.386,2.384,2.386,6.281,0,8.665L115.076,215.209z M221.686,291.34l-15.24,15.24
	c-1.113,1.114-2.653,1.808-4.354,1.808h-13.058c-1.551,0-2.963-0.573-4.047-1.52l-15.538-15.539c-2.384-2.383-2.384-6.284,0-8.669
	l21.778-21.779c2.383-2.383,6.286-2.383,8.666,0l21.792,21.791C224.071,285.058,224.071,288.957,221.686,291.34z M221.686,199.973
	l-60.927,60.926c-1.112,1.112-2.653,1.803-4.352,1.803h-13.057c-1.547,0-2.962-0.574-4.042-1.513l-15.545-15.539
	c-2.385-2.388-2.385-6.286,0-8.672l67.464-67.463c2.383-2.384,6.286-2.384,8.671,0l21.787,21.793
	C224.071,193.692,224.071,197.59,221.686,199.973z"/>
</svg>
