<?xml version="1.0" encoding="utf-8"?>
<!-- Generator: Adobe Illustrator 15.0.2, SVG Export Plug-In  -->
<!DOCTYPE svg PUBLIC "-//W3C//DTD SVG 1.1//EN" "http://www.w3.org/Graphics/SVG/1.1/DTD/svg11.dtd" [
	<!ENTITY ns_flows "http://ns.adobe.com/Flows/1.0/">
<svg version="1.1"
	 xmlns="http://www.w3.org/2000/svg" xmlns:xlink="http://www.w3.org/1999/xlink" xmlns:a="http://ns.adobe.com/AdobeSVGViewerExtensions/3.0/"
	 x="0px" y="0px" width="400px" height="400px" viewBox="2620 34 400 400"
	 overflow="visible" enable-background="new 2620 34 400 400" xml:space="preserve">
<defs>
</defs>
<rect display="none" fill="#141414" width="2629" height="500"/>
<path d="M2963.443,423H2791V267h-44v155.746l-69-0.268V247h-33.76l-18.288-35.067l194.74-166.084l51.173,40.224L2872.694,46h74.016
	l-2.125,97.202l66.299,67.501l-46.41,39.987L2963.443,423z M2810,404h134.557l0.97-162.064l37.59-32.388l-57.701-58.749L2927.29,65
	h-35.984l-1.233,59.552l-68.89-54.151l-171.385,146.166L2655.76,228H2697v175.553l31,0.119V248h82V404z"/>
<path d="M2927,354h-89V247h89V354z M2857,335h51v-69h-51V335z"/>
</svg>
