<?xml version="1.0" encoding="utf-8"?>
<!-- Generator: Adobe Illustrator 15.0.0, SVG Export Plug-In  -->
<!DOCTYPE svg PUBLIC "-//W3C//DTD SVG 1.1//EN" "http://www.w3.org/Graphics/SVG/1.1/DTD/svg11.dtd" [
	<!ENTITY ns_flows "http://ns.adobe.com/Flows/1.0/">
<svg version="1.1"
	 xmlns="http://www.w3.org/2000/svg" xmlns:xlink="http://www.w3.org/1999/xlink" xmlns:a="http://ns.adobe.com/AdobeSVGViewerExtensions/3.0/"
	 x="0px" y="0px" width="400px" height="400px" viewBox="-3.5 -0.5 400 400"
	 overflow="visible" enable-background="new -3.5 -0.5 400 400" xml:space="preserve">
<defs>
</defs>
<path fill-rule="evenodd" clip-rule="evenodd" d="M399,199.5C399,309.68,309.681,399,199.5,399S0,309.68,0,199.5S89.319,0,199.5,0
	S399,89.32,399,199.5z M121.162,66.5l-4.593,35.961l-2.838-19.586c-0.814-6.271-1.604-11.375-2.372-16.375H85.5v77h17.469
	l0.024-50.698l7.334,50.698h12.39l6.954-51.885l0.024,51.885H147.5v-77H121.162z M205.5,98.498c0-7.911-0.084-13.449-0.463-16.614
	c-0.381-3.164-1.514-6.092-3.508-8.782c-1.993-2.689-4.602-4.707-7.877-6.053c-3.275-1.345-6.957-2.017-11.07-2.017
	c-4.336,0-8.127,0.712-11.387,2.136s-5.844,3.465-7.758,6.124c-1.914,2.658-3.041,5.594-3.404,8.806
	c-0.364,3.212-0.533,8.68-0.533,16.4v13.149c0,7.912,0.178,13.45,0.559,16.614c0.379,3.165,1.561,6.093,3.555,8.782
	c1.994,2.69,4.625,4.708,7.9,6.053s6.969,2.018,11.084,2.018c4.334,0,8.132-0.712,11.392-2.137c3.259-1.424,5.847-3.465,7.761-6.123
	s2.947-5.594,3.312-8.806c0.363-3.212,0.438-8.68,0.438-16.401V98.498z M185.5,121.711c0,4.526-0.076,7.39-0.455,8.593
	c-0.38,1.203-1.193,1.804-2.555,1.804c-1.328,0-2.128-0.522-2.492-1.566c-0.363-1.045-0.498-3.798-0.498-8.26V86.394
	c0-3.956,0.258-6.338,0.812-7.145c0.553-0.807,1.344-1.21,2.388-1.21c1.234,0,1.93,0.498,2.325,1.495s0.475,3.283,0.475,6.859
	V121.711z M218.5,143.5h20v-34.653c2,0,4.416,0.491,5.064,1.472c0.648,0.981,0.936,3.529,0.936,7.643V143.5h18v-20.27
	c0-6.202-0.092-9.993-0.424-11.369c-0.332-1.377-1.142-2.888-2.502-4.533c-1.361-1.646-4.001-2.959-7.956-3.94
	c4.367-0.411,7.304-1.646,8.79-3.703c1.488-2.057,2.236-6.076,2.236-12.057c0-6.551-1.051-11.322-3.154-14.312
	c-2.105-2.991-4.825-4.923-8.163-5.651c-3.34-0.727-9.724-1.164-19.153-1.164H218.5V143.5z M243.232,80.935
	c0.87,0.759,1.268,2.357,1.268,4.794v4.226c0,3.386-0.413,5.388-1.315,6.005c-0.901,0.617-2.685,0.925-4.685,0.925V79.795
	C240.5,79.795,242.361,80.175,243.232,80.935z M275.5,143.5h34v-15h-14v-17h12v-15h-12v-14h13v-16h-33V143.5z M198.728,198.215
	c11.384,0,18.531,7.147,18.531,17.473c0,24.62-42.888,29.386-42.888,56.919c0,11.648,7.678,18.531,17.738,21.974l36.799-31.239
	c22.768-19.326,28.592-32.563,28.592-53.478c0-28.592-20.12-45.535-54.271-45.535c-34.682,0-52.948,13.236-61.155,22.237
	l25.944,29.122C173.048,209.333,182.843,198.215,198.728,198.215z M179.137,338.791c0,13.767,9.795,23.562,23.826,23.562
	c14.562,0,24.621-10.325,24.621-23.562c0-15.09-9.53-24.886-24.355-24.886C189.991,313.905,179.137,324.23,179.137,338.791z"/>
</svg>
