<?xml version="1.0" encoding="utf-8"?>
<!-- Generator: Adobe Illustrator 15.0.2, SVG Export Plug-In  -->
<!DOCTYPE svg PUBLIC "-//W3C//DTD SVG 1.1//EN" "http://www.w3.org/Graphics/SVG/1.1/DTD/svg11.dtd" [
	<!ENTITY ns_flows "http://ns.adobe.com/Flows/1.0/">
<svg version="1.1"
	 xmlns="http://www.w3.org/2000/svg" xmlns:xlink="http://www.w3.org/1999/xlink" xmlns:a="http://ns.adobe.com/AdobeSVGViewerExtensions/3.0/"
	 x="0px" y="0px" width="400px" height="400px" viewBox="-12.868 -24.565 400 400"
	 overflow="visible" enable-background="new -12.868 -24.565 400 400" xml:space="preserve">
<defs>
</defs>
<path fill-rule="evenodd" clip-rule="evenodd" d="M188.591,260.815c0.387-6.276-0.293-11.483-1.04-16.626
	c38.371,9.774,74.426,21.863,112.222,32.212c20.444-60.258,36.612-124.796,56.111-185.997
	c-81.992-25.728-165.848-49.591-249.382-73.775c-15.817,49.3-30.045,100.187-44.681,150.668c-6.618,1.694-12.459,4.166-18.704,6.234
	c10.593-39.329,24.441-83.639,37.407-127.809c4.275-14.563,8.412-46.089,22.86-45.72c20.849,0.533,48.897,12.505,69.619,18.704
	c44.669,13.363,88.226,26.598,136.121,40.524c17.27,5.021,58.163,11.429,62.345,24.938c3.514,11.349-7.923,38.749-12.469,54.032
	c-11.145,37.465-18.751,64.231-31.172,105.987c-3.85,12.94-10.707,46.79-22.86,48.838c-14.699,2.477-45.349-11.513-59.228-15.587
	C224.855,271.31,207.155,266.56,188.591,260.815z"/>
<path fill-rule="evenodd" clip-rule="evenodd" d="M206.256,152.75c33.254-13.823,65.824-30.301,98.713-45.721
	c10.099-4.734,22.174-13.461,34.29-9.352c3.642,15.844-17.165,20.361-27.016,24.938c-35.762,16.611-75.783,34.075-110.144,50.915
	c-25.537-31.483-47.904-66.232-71.697-100.792c-7.415-10.77-20.183-21.502-18.704-36.368c13.972-9.316,24.345,17.289,31.173,27.017
	C163.094,92.198,189.359,129.286,206.256,152.75z"/>
<path fill-rule="evenodd" clip-rule="evenodd" d="M155.34,144.437c-0.169,1.208,0.229,1.849,1.039,2.078
	c-0.203,16.077-17.502,15.057-25.978,22.86c-7.659-1.692-14.753-3.95-22.86-5.195C122.705,157.96,136.071,139.717,155.34,144.437z"
	/>
<path fill-rule="evenodd" clip-rule="evenodd" d="M297.696,263.933c-12.053,5.148-16.208-7.515-19.743-14.548
	c-8.277-16.464-14.991-31.119-23.899-48.837c-3.65-7.261-19.595-28.974-1.039-28.056c8.48,0.42,12.24,16.193,14.547,20.782
	c8.451,16.808,15.833,30.715,23.899,46.759C295.094,247.259,303.112,255.477,297.696,263.933z"/>
<path fill-rule="evenodd" clip-rule="evenodd" d="M109.62,300.301c-20.271,19.716-56.671,14.061-66.502-10.391
	c-20.403-50.746,36.697-86.249,85.206-63.385c-0.466,11.572-1.573,23.838-2.078,35.329c-0.416,9.466-2.609,28.283,6.234,30.134
	c13.738,2.873,16.955-22.796,16.625-36.369c-0.882-36.431-22.423-55.694-56.111-56.11c-23.959-0.296-47.398,11.369-58.189,28.056
	c-14.358,22.202-16.63,65.07,1.039,86.244c16.855,20.199,59.603,23.792,93.518,8.312c2.407,4.52,0.359,13.495,1.039,19.743
	C56.941,368.18-6.384,339.924,0.516,260.815c3.629-41.612,34.767-75.696,78.971-80.011c57.342-5.595,97.31,29.984,91.44,87.284
	c-2.259,22.048-16.315,47.373-45.72,42.603C117.71,309.476,114.598,305.848,109.62,300.301z M75.33,243.15
	c-21.086,13.848-11.239,63.831,17.665,46.76c11.717-6.921,9.284-34.017,11.43-49.877C92.853,238.727,83.06,238.075,75.33,243.15z"/>
</svg>
