<?xml version="1.0" encoding="utf-8"?>
<!-- Generator: Adobe Illustrator 15.0.0, SVG Export Plug-In  -->
<!DOCTYPE svg PUBLIC "-//W3C//DTD SVG 1.1//EN" "http://www.w3.org/Graphics/SVG/1.1/DTD/svg11.dtd" [
	<!ENTITY ns_flows "http://ns.adobe.com/Flows/1.0/">
<svg version="1.1"
	 xmlns="http://www.w3.org/2000/svg" xmlns:xlink="http://www.w3.org/1999/xlink" xmlns:a="http://ns.adobe.com/AdobeSVGViewerExtensions/3.0/"
	 x="0px" y="0px" width="400px" height="400px" viewBox="-0.352 0 400 400"
	 overflow="visible" enable-background="new -0.352 0 400 400" xml:space="preserve">
<defs>
</defs>
<path d="M87.747,99.807c48.219,0,87.313,39.103,87.313,87.333c0,48.235-39.095,87.337-87.313,87.337
	c-48.239,0-87.349-39.102-87.349-87.337L0,174.651C0,78.186,78.208,0,174.682,0v49.901c-33.338,0-64.649,12.969-88.238,36.521
	c-4.527,4.551-8.672,9.36-12.403,14.426c4.449-0.695,9.051-1.069,13.672-1.069L87.747,99.807z M312.299,99.807
	c48.255,0,87.35,39.103,87.35,87.333c0,48.235-39.095,87.337-87.35,87.337c-48.2,0-87.313-39.102-87.313-87.337l-0.398-12.488
	C224.587,78.186,302.776,0,399.25,0v49.901c-33.338,0-64.65,12.969-88.238,36.521c-4.528,4.551-8.672,9.36-12.404,14.426
	c4.45-0.695,9.051-1.069,13.691-1.069V99.807z"/>
</svg>
