<?xml version="1.0" encoding="utf-8"?>
<!-- Generator: Adobe Illustrator 15.0.0, SVG Export Plug-In  -->
<!DOCTYPE svg PUBLIC "-//W3C//DTD SVG 1.1//EN" "http://www.w3.org/Graphics/SVG/1.1/DTD/svg11.dtd" [
	<!ENTITY ns_flows "http://ns.adobe.com/Flows/1.0/">
<svg version="1.1"
	 xmlns="http://www.w3.org/2000/svg" xmlns:xlink="http://www.w3.org/1999/xlink" xmlns:a="http://ns.adobe.com/AdobeSVGViewerExtensions/3.0/"
	 x="0px" y="0px" width="400px" height="400px" viewBox="1.531 -0.133 400 400"
	 overflow="visible" enable-background="new 1.531 -0.133 400 400" xml:space="preserve">
<defs>
</defs>
<path d="M199.501,39c42.871,0,83.176,16.694,113.49,47.009C343.305,116.322,360,156.628,360,199.5s-16.695,83.178-47.009,113.491
	C282.677,343.305,242.372,360,199.501,360c-42.872,0-83.178-16.695-113.492-47.009C55.695,282.678,39,242.372,39,199.5
	s16.695-83.178,47.009-113.491C116.323,55.694,156.629,39,199.501,39 M199.501,0C89.318,0,0,89.317,0,199.5S89.318,399,199.501,399
	C309.682,399,399,309.683,399,199.5S309.682,0,199.501,0L199.501,0z"/>
<path d="M118.904,251.191c-15.646,0-28.373,12.727-28.373,28.371c0,15.646,12.727,28.373,28.373,28.373s28.373-12.727,28.373-28.373
	C147.277,263.918,134.551,251.191,118.904,251.191L118.904,251.191z"/>
<path d="M93.683,175.867h-3.151v36h3.151c51.434,0,92.849,41.482,92.849,92.916v3.084h36v-3.084
	C222.531,233.513,164.954,175.867,93.683,175.867L93.683,175.867z"/>
<path d="M93.683,99.867h-3.151v36h3.151c93.031,0,168.849,75.886,168.849,168.916v3.084h36v-3.084
	c0-112.994-91.895-204.916-204.883-204.916H93.683z"/>
</svg>
