<?xml version="1.0" encoding="utf-8"?>
<!-- Generator: Adobe Illustrator 15.0.0, SVG Export Plug-In  -->
<!DOCTYPE svg PUBLIC "-//W3C//DTD SVG 1.1//EN" "http://www.w3.org/Graphics/SVG/1.1/DTD/svg11.dtd" [
	<!ENTITY ns_flows "http://ns.adobe.com/Flows/1.0/">
<svg version="1.1"
	 xmlns="http://www.w3.org/2000/svg" xmlns:xlink="http://www.w3.org/1999/xlink" xmlns:a="http://ns.adobe.com/AdobeSVGViewerExtensions/3.0/"
	 x="0px" y="0px" width="400px" height="400px" viewBox="-1 0.077 400 400"
	 overflow="visible" enable-background="new -1 0.077 400 400" xml:space="preserve">
<defs>
</defs>
<path d="M395,200.038c0,110.479-88.424,200.039-197.5,200.039S0,310.518,0,200.038C0,89.56,88.424,0,197.5,0S395,89.56,395,200.038z
	 M247.307,256.077c5.442,0,9.693-4.399,9.693-9.851V138.077h39.629c3.988,0,7.573-2.596,9.107-6.262
	c1.547-3.713,0.695-8.039-2.119-10.841l-98.646-98.701c-3.849-3.847-10.104-3.87-13.953-0.022l-98.641,98.644
	c-2.82,2.802-3.643,7.213-2.125,10.926c1.52,3.666,5.12,6.257,9.116,6.257H139v108.149c0,5.451,4.239,9.851,9.682,9.851h98.646
	H247.307z M159,127.845c0-5.448-4.87-9.768-10.318-9.768h-25.507l74.828-74.842l74.823,74.842h-25.498
	c-5.439,0-10.328,4.319-10.328,9.768v108.232h-78V127.845z M136,364.077v-71h21v-14h-56v14h21v71H136z M171.533,355.215
	c5.85,7.012,13.828,10.518,23.939,10.518c10.033,0,17.975-3.545,23.822-10.634c6.664-8.019,9.994-19.155,9.994-33.411
	c0-14.1-3.146-24.965-9.441-32.597c-6.295-7.631-14.439-11.446-24.434-11.446c-6.895,0-12.764,1.607-17.605,4.822
	c-4.842,3.216-8.766,8.105-11.766,14.672c-3.004,6.565-4.504,14.924-4.504,25.072C161.539,336.195,164.871,347.196,171.533,355.215z
	 M181.477,299.492c3.609-4.766,8.283-7.147,14.025-7.147s10.387,2.363,13.938,7.089c3.549,4.727,5.324,12.027,5.324,21.906
	c0,10.071-1.824,17.538-5.471,22.399s-8.244,7.292-13.791,7.292c-5.51,0-10.127-2.449-13.85-7.351
	c-3.725-4.899-5.588-12.25-5.588-22.051C176.064,311.636,177.869,304.256,181.477,299.492z M254,364.077v-32h9.629
	c8.523,0,14.527-0.807,18.014-2.492s6.391-4.593,8.715-8.757s3.486-9.317,3.486-15.477c0-6.778-1.346-12.313-4.037-16.614
	c-2.693-4.299-6.111-7.115-10.256-8.433c-2.596-0.812-8.115-1.228-16.561-1.228H240v85H254z M261.264,293.077
	c5.902,0,9.766,0.545,11.59,1.205s3.357,2.068,4.602,4.01c1.242,1.942,1.863,4.384,1.863,7.218c0,2.797-0.602,5.183-1.807,7.104
	c-1.203,1.922-2.746,3.436-4.629,4.173c-1.883,0.738-5.445,1.29-10.688,1.29H254v-25H261.264z"/>
</svg>
