<?xml version="1.0" encoding="utf-8"?>
<!-- Generator: Adobe Illustrator 15.0.0, SVG Export Plug-In  -->
<!DOCTYPE svg PUBLIC "-//W3C//DTD SVG 1.1//EN" "http://www.w3.org/Graphics/SVG/1.1/DTD/svg11.dtd" [
	<!ENTITY ns_flows "http://ns.adobe.com/Flows/1.0/">
<svg version="1.1"
	 xmlns="http://www.w3.org/2000/svg" xmlns:xlink="http://www.w3.org/1999/xlink" xmlns:a="http://ns.adobe.com/AdobeSVGViewerExtensions/3.0/"
	 x="0px" y="0px" width="400px" height="400px" viewBox="-8 0 400 400" overflow="visible" enable-background="new -8 0 400 400"
	 xml:space="preserve">
<defs>
</defs>
<path d="M313.766,136.228c-8.469,3.776-17.587,6.289-27.118,7.416c9.76-5.824,17.217-15.109,20.768-26.137
	c-9.114,5.402-19.245,9.358-29.989,11.478c-8.629-9.176-20.902-14.888-34.503-14.888c-26.102,0-47.229,21.146-47.229,47.229
	c0,3.689,0.405,7.286,1.203,10.768c-39.264-2.008-74.087-20.798-97.395-49.408c-4.051,6.976-6.399,15.135-6.399,23.754
	c0,16.396,8.32,30.867,21.005,39.328c-7.744-0.24-15.029-2.394-21.433-5.888v0.593c0,22.895,16.297,42.017,37.932,46.335
	c-3.963,1.077-8.156,1.681-12.475,1.681c-3.043,0-5.983-0.328-8.896-0.863c6.029,18.764,23.471,32.426,44.136,32.83
	c-16.197,12.681-36.545,20.237-58.708,20.237c-3.833,0-7.568-0.226-11.283-0.653c20.959,13.434,45.778,21.223,72.469,21.223
	c86.91,0,134.463-72.021,134.463-134.475c0-2.077-0.03-4.098-0.129-6.105c9.217-6.609,17.225-14.953,23.57-24.445L313.766,136.228z"
	/>
<path d="M391,195.5C391,87.552,303.468,0,195.5,0S0,87.552,0,195.5c0,107.968,87.532,195.519,195.5,195.519S391,303.468,391,195.5
	 M36.656,195.5c0-87.72,71.121-158.844,158.844-158.844c87.738,0,158.844,71.124,158.844,158.844
	c0,87.738-71.105,158.862-158.844,158.862C107.777,354.362,36.656,283.238,36.656,195.5"/>
</svg>
