<?xml version="1.0" encoding="utf-8"?>
<!-- Generator: Adobe Illustrator 15.0.0, SVG Export Plug-In  -->
<!DOCTYPE svg PUBLIC "-//W3C//DTD SVG 1.1//EN" "http://www.w3.org/Graphics/SVG/1.1/DTD/svg11.dtd" [
	<!ENTITY ns_flows "http://ns.adobe.com/Flows/1.0/">
]>
<svg version="1.1"
	 xmlns="http://www.w3.org/2000/svg" xmlns:xlink="http://www.w3.org/1999/xlink" xmlns:a="http://ns.adobe.com/AdobeSVGViewerExtensions/3.0/"
	 x="0px" y="0px" width="400px" height="400px" viewBox="-2 -2 400 400" overflow="visible" enable-background="new -2 -2 400 400"
	 xml:space="preserve">
<defs>
</defs>
<path fill-rule="evenodd" clip-rule="evenodd" fill="#E6E6E6" d="M185.511,0c7.993,0,15.985,0,23.978,0
	c55.572,4.667,96.961,27.552,127.46,58.052c30.494,30.493,53.381,71.901,58.052,127.459c0,7.993,0,15.985,0,23.978
	c-4.671,55.572-27.551,96.96-58.052,127.46c-30.495,30.497-71.904,53.377-127.46,58.052c-7.992,0-15.984,0-23.978,0
	c-55.559-4.663-96.966-27.558-127.459-58.052C27.553,306.45,4.661,265.063,0,209.488c0-7.992,0-15.984,0-23.978
	c4.089-54.147,27.739-97.146,58.052-127.459C89.421,26.681,131.132,4.549,185.511,0z M184.881,32.812
	C124.743,36.958,82.194,69.21,56.789,107.269c9.109,0.101,21.846-0.038,35.335-0.632c9.588-0.421,29.442-5.782,27.133,6.941
	c-1.438,7.93-15.761,5.028-25.239,6.31c20.152,59.985,40.353,119.919,61.837,178.57c11.603-36.771,24.833-71.92,36.598-108.529
	c-9.127-23.056-17.68-46.682-26.502-70.041c-9.633-1.395-24.222,1.699-23.977-8.202c0.202-8.242,12.195-6.481,22.715-5.679
	c19.123,1.458,38.105,1.195,56.789,0c10.033-0.643,23.059-2.731,24.608,3.785c2.616,11.001-12.632,9.294-24.608,10.096
	c14.006,43.56,29.509,89.397,44.8,133.139c5.196,14.862,9.999,29.612,16.406,43.538c5.342-19.154,9.649-33.139,15.144-50.479
	c4.962-15.66,12.508-32.566,13.883-51.74c1.559-21.765-5.791-36.811-13.252-49.85c-6.377-11.145-15.619-21.293-17.036-34.704
	c-2.156-20.393,11.583-33.461,29.024-34.073C282.206,50.454,240.897,28.949,184.881,32.812z M338.842,182.987
	c-18.438,52.745-38.243,103.078-55.526,155.854c41.195-23.783,79.416-66.688,83.289-130.615c2.137-35.25-6.684-64.246-19.561-87.707
	c-0.035-0.385-0.094-0.747-0.631-0.632C348.326,143.282,345.435,164.13,338.842,182.987z M28.396,208.857
	c4.169,62.201,42.362,107.757,85.814,131.877c2.703,1.501,5.494,4.167,8.833,3.786C96.445,273.316,70.056,201.9,42.907,131.245
	C32.284,153.174,26.47,180.147,28.396,208.857z M150.176,355.879c29.679,9.407,77.062,8.26,103.482-3.155
	c-18.718-45.854-34.574-94.57-53.634-140.08C183.779,260.761,165.899,307.242,150.176,355.879z"/>
</svg>
